<?xml version="1.0" encoding="UTF-8" standalone="no"?>
<svg
   id="scene"
   role="img"
   aria-label="Rendered dodecahedron"
   width="520"
   height="520"
   viewBox="0 0 520.00001 520"
   version="1.1"
   sodipodi:docname="Facet.small.svg"
   inkscape:version="1.4.4 (dcaf3e7, 2026-05-05)"
   xmlns:inkscape="http://www.inkscape.org/namespaces/inkscape"
   xmlns:sodipodi="http://sodipodi.sourceforge.net/DTD/sodipodi-0.dtd"
   xmlns="http://www.w3.org/2000/svg"
   xmlns:svg="http://www.w3.org/2000/svg">
  <defs
     id="defs22">
    <marker
       style="overflow:visible"
       id="ConcaveTriangle"
       refX="3"
       refY="0"
       orient="auto-start-reverse"
       inkscape:stockid="Concave triangle arrow"
       markerWidth="1"
       markerHeight="1"
       viewBox="0 0 1 1"
       inkscape:isstock="true"
       inkscape:collect="always"
       preserveAspectRatio="xMidYMid">
      <path
         transform="scale(0.7)"
         d="M -2,-4 9,0 -2,4 c 2,-2.33 2,-5.66 0,-8 z"
         style="fill:context-stroke;fill-rule:evenodd;stroke:none"
         id="path7" />
    </marker>
  </defs>
  <sodipodi:namedview
     id="namedview22"
     pagecolor="#000000"
     bordercolor="#000000"
     borderopacity="0.25"
     inkscape:showpageshadow="2"
     inkscape:pageopacity="0.0"
     inkscape:pagecheckerboard="0"
     inkscape:deskcolor="#d1d1d1"
     inkscape:zoom="1.2222222"
     inkscape:cx="254.86364"
     inkscape:cy="256.5"
     inkscape:window-width="3008"
     inkscape:window-height="1576"
     inkscape:window-x="0"
     inkscape:window-y="30"
     inkscape:window-maximized="1"
     inkscape:current-layer="scene" />
  <style
     id="style1">
          .edge{fill:none;stroke:#0f172a;stroke-linecap:round;stroke-linejoin:round}
          .edge.hidden{stroke-dasharray:6 6;opacity:0.35}
          .vertex{fill:#b45309;stroke:none}
          .bg{fill:transparent}
        </style>
  <circle
     style="fill:#ffffff;stroke-width:23.9291;stroke-dasharray:143.289, 143.289"
     id="path1"
     cx="260"
     cy="260"
     r="250" />
  <g
     id="g22"
     transform="translate(-104.00423,-103.7646)" />
  <g
     id="g1"
     transform="translate(2.5644458,1.8823001)">
    <g
     id="g21"
     transform="translate(69.44639,69.67853) scale(5.801667)"
     style="fill:none;stroke:#5497fd;stroke-width:1.3789;stroke-linecap:round;stroke-linejoin:round">
    <path
       id="mark-faces"
       style="fill:#ffffff;stroke:none"
       d="M32.500 5.500L48.370 10.657L58.179 24.157L58.179 40.843L48.370 54.343L32.500 59.500L16.630 54.343L6.821 40.843L6.821 24.157L16.630 10.657Z" />
    <path
       id="mark-inner-lines"
       d="M48.370 27.343L42.308 46.000L22.692 46.000L16.630 27.343L32.500 15.813ZM32.500 15.813L32.500 5.500M48.370 27.343L58.179 24.157M42.308 46.000L48.370 54.343M22.692 46.000L16.630 54.343M16.630 27.343L6.821 24.157" />
    <path
       id="mark-outer-line"
       d="M32.500 5.500L48.370 10.657L58.179 24.157L58.179 40.843L48.370 54.343L32.500 59.500L16.630 54.343L6.821 40.843L6.821 24.157L16.630 10.657Z" />
  </g>
    <path
       style="fill:none;stroke:#e83a44;stroke-width:16;stroke-dasharray:96, 64;stroke-dashoffset:83.2;stroke-opacity:1"
       d="M 434.7767,81.458699 C 480.0178,126.69981 508,189.19981 508,258.2354 c 0,69.03559 -27.9822,131.53559 -73.2233,176.7767"
       id="path23" />
  </g>
  <path
     style="fill:none;stroke:#e83a44;stroke-width:16;stroke-dasharray:none;stroke-dashoffset:0;stroke-opacity:1;marker-end:url(#ConcaveTriangle)"
     d="M 434.7767,435.0121 C 389.53559,480.2532 327.03559,508.2354 258,508.2354 119.92881,508.2354 8,396.30659 8,258.2354 8,120.16421 119.92881,8.2353992 258,8.2353992 c 69.03559,0 131.53559,18.9821998 176.7767,73.2232998"
     id="path22"
     transform="translate(2.5644458,1.8823001)"
     sodipodi:nodetypes="csssc" />
</svg>
