<svg xmlns="http://www.w3.org/2000/svg" viewBox="0 0 65.0 64.0"><path d="M40.8498 10.38C42.816 10.383 44.7572 10.8222 46.5332 11.666C48.3092 12.5099 49.8758 13.7373 51.1201 15.2598C52.3644 16.7823 53.2553 18.5619 53.7287 20.4703C54.2021 22.3788 54.2461 24.3685 53.8576 26.296C53.4691 28.2235 52.6578 30.0408 51.482 31.6168C50.3063 33.1928 48.7954 34.4883 47.0585 35.4099C45.3216 36.3315 43.4018 36.8562 41.4376 36.9461C39.4734 37.036 37.5136 36.689 35.6997 35.93L34.0797 37.55C33.9859 37.6457 33.8739 37.7216 33.7502 37.7731C33.6265 37.8246 33.4938 37.8508 33.3598 37.85H30.7097C30.4241 37.8526 30.1509 37.9672 29.9489 38.1692C29.747 38.3712 29.6323 38.6444 29.6297 38.93V41.58C29.6297 41.8452 29.5244 42.0996 29.3369 42.2871C29.1493 42.4747 28.8949 42.58 28.6297 42.58H25.9798C25.6907 42.58 25.4134 42.6948 25.209 42.8992C25.0046 43.1037 24.8897 43.3809 24.8897 43.67V46.31C24.8897 46.5752 24.7844 46.8296 24.5968 47.0171C24.4093 47.2046 24.1549 47.31 23.8897 47.31H21.2497C20.9606 47.31 20.6834 47.4248 20.479 47.6293C20.2746 47.8337 20.1598 48.1109 20.1598 48.4V51.05C20.1607 51.1888 20.1327 51.3263 20.0776 51.4537C20.0225 51.5811 19.9415 51.6956 19.8397 51.79L18.3598 53.28C18.2651 53.3739 18.1527 53.4479 18.029 53.4977C17.9054 53.5475 17.773 53.5721 17.6397 53.57H11.9697C11.7045 53.57 11.4502 53.4647 11.2626 53.2771C11.0751 53.0896 10.9697 52.8352 10.9697 52.57V46.9C10.9688 46.7612 10.9968 46.6237 11.0519 46.4963C11.107 46.3689 11.188 46.2544 11.2898 46.16L28.6497 28.8C27.8008 26.7785 27.4647 24.5785 27.6715 22.3958C27.8782 20.213 28.6214 18.1152 29.8349 16.2891C31.0483 14.463 32.6944 12.9652 34.6266 11.929C36.5588 10.8928 38.7172 10.3504 40.9098 10.35L40.8498 10.38ZM42.6497 25.81C37.4797 25.81 37.4797 17.94 42.6497 17.94C47.8197 17.94 47.7797 25.81 42.6497 25.81ZM42.6497 19.43C39.4297 19.43 39.4297 24.32 42.6497 24.32C45.8697 24.32 45.8697 19.43 42.6497 19.43ZM29.7797 21.8C29.4072 24.1091 29.7564 26.4768 30.7797 28.58C30.883 28.771 30.9213 28.9904 30.8888 29.2051C30.8563 29.4198 30.7549 29.6181 30.5998 29.77L13.0197 47.35V51.58H17.2398L18.1497 50.67V48.44C18.1524 47.6107 18.483 46.8161 19.0694 46.2297C19.6558 45.6432 20.4504 45.3126 21.2797 45.31H22.8997V43.68C22.9024 42.8507 23.233 42.0561 23.8194 41.4697C24.4058 40.8833 25.2004 40.5526 26.0297 40.55H27.6598V38.92C27.6598 38.0925 27.9885 37.2989 28.5736 36.7138C29.1587 36.1287 29.9523 35.8 30.7797 35.8H33.0097L34.7797 34.02C34.9283 33.8699 35.1205 33.7707 35.3289 33.7366C35.5373 33.7024 35.7511 33.7351 35.9397 33.83C38.0523 34.8577 40.4309 35.2069 42.7497 34.83C44.7846 34.4813 46.6844 33.5799 48.2415 32.2243C49.7986 30.8687 50.9531 29.1111 51.5786 27.1436C52.2042 25.1761 52.2768 23.0746 51.7885 21.0686C51.3002 19.0627 50.2699 17.2296 48.81 15.7697C47.3502 14.3099 45.5171 13.2795 43.5111 12.7912C41.5052 12.3029 39.4036 12.3756 37.4361 13.0011C35.4687 13.6267 33.7111 14.7811 32.3555 16.3382C30.9999 17.8953 30.0984 19.7951 29.7497 21.83L29.7797 21.8Z" fill="#ff8b97a5" /></svg>