<svg xmlns="http://www.w3.org/2000/svg" viewBox="0 0 65.0 65.0"><path d="M32.5297 53.79C29.7997 53.7812 27.157 52.827 25.0512 51.0895C22.9455 49.352 21.5067 46.9386 20.9797 44.2599C18.9347 44.6273 17.0833 45.7 15.7477 47.2914C14.412 48.8829 13.6767 50.8923 13.6697 52.97C13.6697 53.2352 13.5643 53.4895 13.3768 53.6771C13.1892 53.8646 12.9349 53.97 12.6697 53.97C12.4045 53.97 12.1501 53.8646 11.9626 53.6771C11.775 53.4895 11.6697 53.2352 11.6697 52.97C11.6765 50.3926 12.5948 47.9007 14.262 45.9352C15.9292 43.9697 18.2379 42.6572 20.7797 42.23V32.52C18.2333 32.0973 15.9187 30.787 14.2458 28.8213C12.5729 26.8556 11.6497 24.3612 11.6396 21.78C11.6396 21.5148 11.745 21.2604 11.9326 21.0729C12.1201 20.8853 12.3744 20.78 12.6396 20.78C12.9049 20.78 13.1592 20.8853 13.3468 21.0729C13.5343 21.2604 13.6396 21.5148 13.6396 21.78C13.6502 23.82 14.3613 25.7944 15.6538 27.3727C16.9463 28.951 18.7418 30.0374 20.7397 30.45C20.616 28.1917 21.1417 25.9453 22.2546 23.9764C23.3676 22.0076 25.0211 20.3986 27.0197 19.34V15.96C27.0144 15.4003 26.7891 14.8651 26.3923 14.4702C25.9956 14.0754 25.4594 13.8526 24.8997 13.85C24.6344 13.85 24.3801 13.7446 24.1926 13.5571C24.005 13.3695 23.8997 13.1152 23.8997 12.85C23.8997 12.5848 24.005 12.3304 24.1926 12.1428C24.3801 11.9553 24.6344 11.85 24.8997 11.85C26.0004 11.8526 27.0555 12.2903 27.8348 13.0677C28.6141 13.8452 29.0544 14.8992 29.0597 15.9999V18.53C31.3011 17.8398 33.6982 17.8398 35.9396 18.53V15.9999C35.9449 14.9009 36.3838 13.8484 37.1609 13.0713C37.9381 12.2942 38.9906 11.8552 40.0897 11.85C40.3549 11.85 40.6092 11.9553 40.7968 12.1428C40.9843 12.3304 41.0897 12.5848 41.0897 12.85C41.0897 13.1152 40.9843 13.3695 40.7968 13.5571C40.6092 13.7446 40.3549 13.85 40.0897 13.85C39.5309 13.8526 38.9957 14.0758 38.6006 14.4709C38.2055 14.866 37.9823 15.4012 37.9797 15.96V19.34C39.9742 20.4034 41.6243 22.0133 42.7366 23.981C43.8488 25.9487 44.3771 28.1927 44.2596 30.45C46.2565 30.0371 48.0508 28.9503 49.3416 27.3718C50.6325 25.7933 51.3414 23.8191 51.3497 21.78C51.3497 21.5148 51.455 21.2604 51.6426 21.0729C51.8301 20.8853 52.0845 20.78 52.3497 20.78C52.6149 20.78 52.8692 20.8853 53.0568 21.0729C53.2443 21.2604 53.3497 21.5148 53.3497 21.78C53.34 24.3597 52.4183 26.8529 50.7474 28.8184C49.0765 30.784 46.7642 32.0951 44.2197 32.52V42.23C46.7864 42.6394 49.1229 43.9508 50.8092 45.9286C52.4956 47.9064 53.4212 50.4208 53.4197 53.02C53.4197 53.2852 53.3143 53.5395 53.1268 53.7271C52.9392 53.9146 52.6849 54.02 52.4197 54.02C52.1545 54.02 51.9001 53.9146 51.7126 53.7271C51.525 53.5395 51.4197 53.2852 51.4197 53.02C51.4146 50.9418 50.6799 48.9314 49.3439 47.3395C48.0079 45.7477 46.1555 44.6754 44.1097 44.3099C43.575 46.9862 42.1283 49.394 40.0166 51.1228C37.9049 52.8516 35.2588 53.7943 32.5297 53.79ZM32.5297 51.79C35.1043 51.7794 37.5705 50.752 39.3911 48.9314C41.2117 47.1108 42.2391 44.6446 42.2496 42.0699V32.7H22.7797V42.02C22.785 44.6024 23.8146 47.0771 25.6425 48.9013C27.4704 50.7255 29.9473 51.7499 32.5297 51.7499V51.79ZM22.7797 30.6199H42.2197C42.2197 27.5299 41.6397 25.1399 39.3597 22.8699C37.5336 21.0593 35.0662 20.0434 32.4947 20.0434C29.9231 20.0434 27.4557 21.0593 25.6296 22.8699C23.3796 25.1399 22.7797 27.5299 22.7797 30.6199Z" fill="#ff8b97a5" /></svg>