<svg xmlns="http://www.w3.org/2000/svg" viewBox="0 0 65.0 65.0"><path d="M32.5096 11.02C34.408 11.02 36.2879 11.3941 38.0417 12.1209C39.7955 12.8477 41.3889 13.913 42.7308 15.2559C44.0727 16.5987 45.1369 18.1928 45.8625 19.9471C46.5881 21.7015 46.9609 23.5816 46.9596 25.48C46.9596 31.48 43.2896 34.34 41.7596 39.6C41.1342 41.7544 40.8177 43.9867 40.8196 46.23V50.69C40.8143 51.7801 40.3782 52.824 39.6064 53.5939C38.8346 54.3639 37.7897 54.7974 36.6996 54.8H28.3096C27.2203 54.7974 26.1765 54.3635 25.4063 53.5933C24.6361 52.8231 24.2022 51.7792 24.1996 50.69V46.23C24.2015 43.9867 23.885 41.7544 23.2596 39.6C21.7296 34.35 18.0596 31.54 18.0596 25.48C18.0583 23.5816 18.4311 21.7015 19.1567 19.9471C19.8822 18.1928 20.9464 16.5987 22.2883 15.2559C23.6303 13.913 25.2237 12.8477 26.9775 12.1209C28.7313 11.3941 30.6111 11.02 32.5096 11.02ZM33.5096 34.62V45.21H38.7796C38.8603 43.1203 39.1962 41.0483 39.7796 39.04C41.2196 34.04 44.8896 30.95 44.8896 25.48C44.8896 22.1887 43.5821 19.0322 41.2548 16.7048C38.9274 14.3775 35.7709 13.07 32.4796 13.07C29.1883 13.07 26.0317 14.3775 23.7044 16.7048C21.3771 19.0322 20.0696 22.1887 20.0696 25.48C20.0696 30.95 23.7396 34.06 25.1796 39.04C25.763 41.0483 26.0988 43.1203 26.1796 45.21H31.4496V34.6L26.0096 28.4C25.8266 28.1918 25.7338 27.9194 25.7516 27.6428C25.7694 27.3662 25.8964 27.108 26.1046 26.925C26.3128 26.742 26.5851 26.6492 26.8618 26.6671C27.1384 26.6849 27.3966 26.8118 27.5796 27.02L32.5096 32.65L37.4396 27.02C37.6173 26.8171 37.8683 26.6931 38.1374 26.6753C38.4065 26.6575 38.6717 26.7474 38.8746 26.925C39.0775 27.1027 39.2015 27.3537 39.2193 27.6229C39.2371 27.892 39.1473 28.1572 38.9696 28.36L33.5096 34.62ZM38.7796 47.23H26.2396V50.67C26.2396 50.9419 26.2931 51.211 26.3972 51.4622C26.5012 51.7133 26.6536 51.9415 26.8459 52.1337C27.0381 52.3259 27.2663 52.4784 27.5174 52.5825C27.7686 52.6865 28.0377 52.74 28.3096 52.74H36.6996C37.2495 52.74 37.7771 52.5223 38.1668 52.1343C38.5566 51.7464 38.7769 51.22 38.7796 50.67V47.23Z" fill="#ff8b97a5" /></svg>