<svg xmlns="http://www.w3.org/2000/svg" viewBox="0 0 65.0 65.0"><path d="M53.1696 53.72C49.9396 56.95 44.6496 57.44 38.7096 55.61C26.3396 51.81 13.3396 38.81 9.53959 26.45C7.70959 20.51 8.19959 15.21 11.4296 11.98L13.9696 9.45001C14.5104 8.91627 15.2397 8.617 15.9996 8.617C16.7595 8.617 17.4888 8.91627 18.0296 9.45001L25.8796 17.31C26.4158 17.8496 26.7167 18.5794 26.7167 19.34C26.7167 20.1007 26.4158 20.8305 25.8796 21.37L23.3496 23.9C18.9796 28.27 36.4296 46.62 41.2596 41.8L43.7796 39.27C44.3221 38.7356 45.0531 38.4361 45.8146 38.4361C46.5761 38.4361 47.3071 38.7356 47.8496 39.27L55.6996 47.13C55.9663 47.3965 56.1778 47.713 56.3222 48.0613C56.4665 48.4096 56.5408 48.783 56.5408 49.16C56.5408 49.5371 56.4665 49.9104 56.3222 50.2587C56.1778 50.607 55.9663 50.9235 55.6996 51.19L53.1696 53.72ZM39.2996 53.67C44.5196 55.27 49.0696 54.94 51.7296 52.28L54.2596 49.75C54.413 49.5899 54.4986 49.3768 54.4986 49.155C54.4986 48.9333 54.413 48.7201 54.2596 48.56L46.4096 40.71C46.2495 40.5566 46.0363 40.471 45.8146 40.471C45.5929 40.471 45.3797 40.5566 45.2196 40.71L42.6896 43.24C35.8996 50.03 15.5196 28.85 21.9096 22.46L24.4396 19.93C24.593 19.7699 24.6786 19.5568 24.6786 19.335C24.6786 19.1133 24.593 18.9001 24.4396 18.74L16.5896 10.89C16.4295 10.7366 16.2163 10.651 15.9946 10.651C15.7729 10.651 15.5597 10.7366 15.3996 10.89L12.8696 13.42C10.2196 16.08 9.86959 20.64 11.4796 25.85C15.0796 37.56 27.5896 50.07 39.2996 53.67Z" fill="#ff8b97a5" /></svg>