<svg xmlns="http://www.w3.org/2000/svg" viewBox="0 0 65.0 65.0"><path d="M9.24023 18.64C9.24023 18.3747 9.34554 18.1204 9.53308 17.9329C9.72062 17.7453 9.97502 17.64 10.2402 17.64H28.5102C28.7754 17.64 29.0298 17.7453 29.2173 17.9329C29.4049 18.1204 29.5102 18.3747 29.5102 18.64V22.64C30.7049 22.8763 31.7806 23.5199 32.5537 24.4609C33.3268 25.402 33.7495 26.5821 33.7495 27.8C33.7495 29.0179 33.3268 30.198 32.5537 31.139C31.7806 32.08 30.7049 32.7236 29.5102 32.96V35.96H32.5102C32.7465 34.7652 33.3902 33.6895 34.3312 32.9164C35.2722 32.1433 36.4524 31.7208 37.6702 31.7208C38.8881 31.7208 40.0682 32.1433 41.0092 32.9164C41.9502 33.6895 42.5939 34.7652 42.8302 35.96H46.8302C47.0954 35.96 47.3498 36.0653 47.5373 36.2529C47.7248 36.4404 47.8302 36.6947 47.8302 36.96V55.23C47.8302 55.4952 47.7248 55.7495 47.5373 55.9371C47.3498 56.1246 47.0954 56.23 46.8302 56.23H10.2602C9.99498 56.23 9.74064 56.1246 9.5531 55.9371C9.36556 55.7495 9.26019 55.4952 9.26019 55.23L9.24023 18.64ZM11.2402 19.64V35.8799H14.2402C14.4712 34.6822 15.1121 33.6022 16.0529 32.8256C16.9936 32.0489 18.1753 31.6242 19.3952 31.6242C20.6151 31.6242 21.7969 32.0489 22.7376 32.8256C23.6783 33.6022 24.3192 34.6822 24.5502 35.8799H27.5502V32.02C27.5502 31.7547 27.6555 31.5004 27.8431 31.3129C28.0306 31.1253 28.285 31.02 28.5502 31.02C29.4042 31.02 30.2232 30.6807 30.8271 30.0768C31.431 29.473 31.7702 28.654 31.7702 27.8C31.7702 26.946 31.431 26.1269 30.8271 25.5231C30.2232 24.9192 29.4042 24.58 28.5502 24.58C28.285 24.58 28.0306 24.4746 27.8431 24.287C27.6555 24.0995 27.5502 23.8452 27.5502 23.58V19.7L11.2402 19.64ZM33.3902 37.92H29.5102V40.92C30.7049 41.1563 31.7806 41.7999 32.5537 42.7409C33.3268 43.6819 33.7495 44.8621 33.7495 46.08C33.7495 47.2978 33.3268 48.478 32.5537 49.419C31.7806 50.36 30.7049 51.0036 29.5102 51.2399V54.2399H45.7802V37.9299H41.9102C41.645 37.9299 41.3907 37.8246 41.2031 37.6371C41.0156 37.4495 40.9102 37.1951 40.9102 36.9299C40.9347 36.4913 40.8694 36.0524 40.7183 35.6398C40.5673 35.2273 40.3337 34.8499 40.0318 34.5308C39.7299 34.2116 39.3661 33.9574 38.9626 33.7836C38.5592 33.6099 38.1245 33.5203 37.6852 33.5203C37.2459 33.5203 36.8113 33.6099 36.4078 33.7836C36.0043 33.9574 35.6405 34.2116 35.3386 34.5308C35.0368 34.8499 34.8031 35.2273 34.6521 35.6398C34.5011 36.0524 34.4358 36.4913 34.4602 36.9299C34.4603 37.0638 34.4335 37.1964 34.3813 37.3197C34.3292 37.443 34.2529 37.5546 34.1568 37.6479C34.0607 37.7411 33.947 37.8142 33.8221 37.8626C33.6973 37.9111 33.5641 37.9339 33.4302 37.9299L33.3902 37.92ZM36.5202 9.57996H54.7902C55.0554 9.57996 55.3098 9.68533 55.4973 9.87286C55.6849 10.0604 55.7902 10.3147 55.7902 10.58V28.85C55.7902 29.1152 55.6849 29.3695 55.4973 29.5571C55.3098 29.7446 55.0554 29.85 54.7902 29.85H49.8902C49.625 29.85 49.3706 29.7446 49.1831 29.5571C48.9956 29.3695 48.8902 29.1152 48.8902 28.85C48.8902 27.996 48.5509 27.1769 47.9471 26.5731C47.3432 25.9692 46.5242 25.6299 45.6702 25.6299C44.8162 25.6299 43.9972 25.9692 43.3933 26.5731C42.7894 27.1769 42.4502 27.996 42.4502 28.85C42.4502 29.1152 42.3449 29.3695 42.1573 29.5571C41.9698 29.7446 41.7154 29.85 41.4502 29.85H36.5602C36.295 29.85 36.0406 29.7446 35.8531 29.5571C35.6656 29.3695 35.5602 29.1152 35.5602 28.85V24.02C35.5602 23.7547 35.6656 23.5004 35.8531 23.3129C36.0406 23.1253 36.295 23.02 36.5602 23.02C37.3845 22.974 38.1599 22.6142 38.7272 22.0145C39.2945 21.4147 39.6105 20.6205 39.6105 19.795C39.6105 18.9694 39.2945 18.1752 38.7272 17.5754C38.1599 16.9757 37.3845 16.6159 36.5602 16.5699C36.295 16.5699 36.0406 16.4646 35.8531 16.277C35.6656 16.0895 35.5602 15.8352 35.5602 15.5699V10.6799C35.5477 10.5412 35.5643 10.4015 35.6089 10.2696C35.6535 10.1377 35.7251 10.0166 35.8193 9.91394C35.9134 9.81133 36.0279 9.72949 36.1555 9.67371C36.2831 9.61792 36.421 9.5894 36.5602 9.58997L36.5202 9.57996ZM53.7702 11.58H37.5802V14.53C38.7805 14.7612 39.8628 15.4033 40.6411 16.3459C41.4193 17.2884 41.845 18.4726 41.845 19.6949C41.845 20.9173 41.4193 22.1015 40.6411 23.0441C39.8628 23.9866 38.7805 24.6287 37.5802 24.86V27.86H40.5802C40.8165 26.6653 41.4602 25.5896 42.4012 24.8165C43.3422 24.0434 44.5224 23.6207 45.7402 23.6207C46.9581 23.6207 48.1382 24.0434 49.0792 24.8165C50.0202 25.5896 50.6639 26.6653 50.9002 27.86H53.9002L53.7702 11.58ZM15.1102 37.8799H11.2802V54.11H27.5102V50.23C27.5102 49.9648 27.6156 49.7104 27.8031 49.5228C27.9906 49.3353 28.245 49.23 28.5102 49.23C29.3642 49.23 30.1832 48.8907 30.7871 48.2869C31.391 47.683 31.7302 46.8639 31.7302 46.0099C31.7302 45.156 31.391 44.337 30.7871 43.7331C30.1832 43.1292 29.3642 42.79 28.5102 42.79C28.245 42.79 27.9906 42.6846 27.8031 42.4971C27.6156 42.3095 27.5102 42.0552 27.5102 41.79V37.92H23.6402C23.375 37.92 23.1206 37.8146 22.9331 37.6271C22.7456 37.4395 22.6402 37.1852 22.6402 36.92C22.6646 36.4814 22.5993 36.0423 22.4483 35.6298C22.2973 35.2173 22.0637 34.8399 21.7618 34.5208C21.46 34.2016 21.0962 33.9474 20.6927 33.7737C20.2892 33.5999 19.8545 33.5103 19.4152 33.5103C18.9759 33.5103 18.5412 33.5999 18.1378 33.7737C17.7343 33.9474 17.3705 34.2016 17.0686 34.5208C16.7667 34.8399 16.5331 35.2173 16.3821 35.6298C16.231 36.0423 16.1658 36.4814 16.1902 36.92C16.1917 37.0556 16.1655 37.19 16.1134 37.3152C16.0613 37.4404 15.9842 37.5537 15.887 37.6481C15.7897 37.7426 15.6742 37.8163 15.5475 37.8647C15.4209 37.9132 15.2857 37.9354 15.1502 37.9299L15.1102 37.8799Z" fill="#ff8b97a5" /></svg>