<svg xmlns="http://www.w3.org/2000/svg" viewBox="0 0 65.0 65.0"><path d="M32.04 8.02002C28.7591 7.95395 25.4981 8.5431 22.4478 9.75296C19.3974 10.9628 16.6191 12.7691 14.2755 15.066C11.9318 17.3629 10.07 20.1042 8.79901 23.1296C7.52799 26.155 6.87329 29.4035 6.87329 32.685C6.87329 35.9665 7.52799 39.2151 8.79901 42.2404C10.07 45.2658 11.9318 48.0072 14.2755 50.3041C16.6191 52.601 19.3974 54.4072 22.4478 55.6171C25.4981 56.827 28.7591 57.4161 32.04 57.35C32.8959 57.3225 33.7091 56.9702 34.3146 56.3647C34.9201 55.7592 35.2725 54.9459 35.3 54.09C35.3 52.01 33.0099 50.96 33.0099 48.38C33.0405 46.984 33.6087 45.6536 34.5961 44.6662C35.5835 43.6788 36.914 43.1106 38.31 43.08H43.45C45.1952 43.0988 46.9266 42.7688 48.5426 42.1096C50.1586 41.4503 51.6268 40.4751 52.8609 39.2409C54.095 38.0068 55.0703 36.5387 55.7296 34.9227C56.3888 33.3066 56.7187 31.5752 56.7 29.83C56.7 16.65 44.39 8.02002 32.04 8.02002ZM19.04 46.95C17.9917 46.95 16.967 46.6392 16.0955 46.0568C15.2239 45.4744 14.5446 44.6467 14.1434 43.6782C13.7423 42.7098 13.6373 41.6441 13.8418 40.616C14.0463 39.5879 14.5511 38.6436 15.2923 37.9023C16.0335 37.1611 16.9779 36.6563 18.006 36.4518C19.0341 36.2473 20.0997 36.3523 21.0682 36.7534C22.0366 37.1546 22.8644 37.8339 23.4468 38.7055C24.0291 39.5771 24.34 40.6018 24.34 41.65C24.302 43.0348 23.7343 44.3522 22.7538 45.3309C21.7733 46.3095 20.4548 46.8747 19.0699 46.91L19.04 46.95ZM19.04 44.95C19.6871 44.95 20.3198 44.758 20.8577 44.3982C21.3957 44.0385 21.8148 43.5272 22.062 42.9291C22.3092 42.331 22.3734 41.673 22.2464 41.0384C22.1194 40.4038 21.807 39.8211 21.3486 39.3642C20.8903 38.9073 20.3067 38.5967 19.6718 38.4716C19.0368 38.3466 18.379 38.4128 17.7817 38.6618C17.1843 38.9108 16.6743 39.3315 16.3162 39.8706C15.9581 40.4096 15.768 41.0429 15.77 41.69C15.8177 42.5385 16.1843 43.3376 16.7962 43.9273C17.4081 44.517 18.2203 44.8537 19.0699 44.87L19.04 44.95ZM16.83 33.85C15.7817 33.85 14.757 33.5392 13.8854 32.9568C13.0139 32.3744 12.3346 31.5467 11.9334 30.5782C11.5323 29.6098 11.4273 28.5441 11.6318 27.516C11.8363 26.4879 12.3411 25.5436 13.0823 24.8024C13.8235 24.0611 14.7679 23.5564 15.796 23.3519C16.8241 23.1474 17.8898 23.2523 18.8582 23.6535C19.8267 24.0546 20.6544 24.7339 21.2368 25.6055C21.8191 26.4771 22.1299 27.5018 22.1299 28.55C22.0843 29.9286 21.513 31.2374 20.5331 32.208C19.5531 33.1787 18.2389 33.7376 16.86 33.77L16.83 33.85ZM16.83 31.85C17.4771 31.852 18.1104 31.6619 18.6494 31.3038C19.1885 30.9457 19.6091 30.4357 19.8582 29.8383C20.1072 29.241 20.1734 28.5832 20.0483 27.9482C19.9233 27.3132 19.6127 26.7296 19.1558 26.2713C18.6988 25.813 18.1162 25.5006 17.4816 25.3736C16.847 25.2466 16.189 25.3108 15.5909 25.558C14.9928 25.8052 14.4815 26.2243 14.1218 26.7623C13.762 27.3002 13.5699 27.9328 13.5699 28.58C13.6224 29.4233 13.9897 30.216 14.599 30.8013C15.2083 31.3866 16.0153 31.7216 16.86 31.74L16.83 31.85ZM25.45 23.69C24.4017 23.69 23.377 23.3792 22.5054 22.7968C21.6339 22.2144 20.9545 21.3867 20.5534 20.4182C20.1523 19.4498 20.0473 18.3841 20.2518 17.356C20.4563 16.3279 20.9611 15.3836 21.7023 14.6424C22.4436 13.9011 23.3879 13.3964 24.416 13.1919C25.4441 12.9874 26.5098 13.0923 27.4782 13.4935C28.4467 13.8946 29.2744 14.5739 29.8568 15.4455C30.4391 16.3171 30.7499 17.3418 30.7499 18.39C30.6945 19.7625 30.1191 21.0625 29.1404 22.0263C28.1618 22.9901 26.8531 23.5456 25.48 23.58L25.45 23.69ZM25.45 21.69C26.0947 21.69 26.725 21.4988 27.2611 21.1406C27.7972 20.7824 28.215 20.2733 28.4618 19.6776C28.7085 19.0819 28.7731 18.4264 28.6473 17.794C28.5216 17.1617 28.211 16.5808 27.7551 16.1248C27.2992 15.6689 26.7183 15.3584 26.0859 15.2327C25.4536 15.1069 24.7981 15.1714 24.2024 15.4182C23.6067 15.6649 23.0976 16.0828 22.7394 16.6189C22.3812 17.155 22.1899 17.7853 22.1899 18.43C22.2543 19.2644 22.6269 20.0449 23.235 20.6197C23.8431 21.1946 24.6433 21.5226 25.48 21.54L25.45 21.69ZM38.95 23.69C37.9017 23.69 36.877 23.3792 36.0054 22.7968C35.1339 22.2144 34.4545 21.3867 34.0534 20.4182C33.6523 19.4498 33.5473 18.3841 33.7518 17.356C33.9563 16.3279 34.4611 15.3836 35.2023 14.6424C35.9436 13.9011 36.8879 13.3964 37.916 13.1919C38.9441 12.9874 40.0098 13.0923 40.9782 13.4935C41.9467 13.8946 42.7744 14.5739 43.3568 15.4455C43.9391 16.3171 44.2499 17.3418 44.2499 18.39C44.1945 19.7625 43.6191 21.0625 42.6404 22.0263C41.6618 22.9901 40.3531 23.5456 38.98 23.58L38.95 23.69ZM38.95 21.69C39.5947 21.69 40.225 21.4988 40.7611 21.1406C41.2972 20.7824 41.715 20.2733 41.9618 19.6776C42.2085 19.0819 42.2731 18.4264 42.1473 17.794C42.0215 17.1617 41.711 16.5808 41.2551 16.1248C40.7992 15.6689 40.2183 15.3584 39.5859 15.2327C38.9536 15.1069 38.2981 15.1714 37.7024 15.4182C37.1067 15.6649 36.5976 16.0828 36.2394 16.6189C35.8812 17.155 35.6899 17.7853 35.6899 18.43C35.7521 19.2652 36.124 20.047 36.7325 20.6223C37.3411 21.1976 38.1427 21.5249 38.98 21.54L38.95 21.69ZM47.64 33.92C46.5917 33.92 45.567 33.6092 44.6954 33.0268C43.8239 32.4444 43.1446 31.6167 42.7434 30.6483C42.3423 29.6798 42.2373 28.6141 42.4418 27.586C42.6463 26.5579 43.1511 25.6136 43.8923 24.8723C44.6335 24.1311 45.5779 23.6263 46.606 23.4218C47.6341 23.2173 48.6998 23.3223 49.6682 23.7234C50.6367 24.1246 51.4644 24.8039 52.0468 25.6755C52.6291 26.5471 52.9399 27.5718 52.9399 28.62C52.8747 29.9854 52.2949 31.2755 51.3173 32.2309C50.3396 33.1863 49.0365 33.7362 47.67 33.77L47.64 33.92ZM47.64 31.92C48.2871 31.922 48.9203 31.7319 49.4594 31.3738C49.9985 31.0157 50.4191 30.5057 50.6682 29.9083C50.9172 29.311 50.9834 28.6532 50.8583 28.0182C50.7333 27.3832 50.4227 26.7997 49.9658 26.3413C49.5088 25.883 48.9262 25.5706 48.2916 25.4436C47.657 25.3166 46.999 25.3808 46.4009 25.628C45.8028 25.8752 45.2915 26.2943 44.9318 26.8323C44.572 27.3702 44.3799 28.0028 44.3799 28.65C44.449 29.4808 44.8236 30.2564 45.4313 30.8271C46.0389 31.3979 46.8365 31.7231 47.67 31.74L47.64 31.92ZM32.0099 6.12002C45.4999 6.12002 58.71 15.69 58.71 29.97C58.7287 31.9831 58.3459 33.9798 57.5842 35.8433C56.8224 37.7068 55.6969 39.3998 54.2733 40.8233C52.8498 42.2469 51.1567 43.3724 49.2932 44.1342C47.4297 44.896 45.4331 45.2787 43.42 45.26H38.28C37.4241 45.2875 36.6108 45.6398 36.0052 46.2453C35.3997 46.8508 35.0475 47.6641 35.02 48.52C35.02 50.58 37.31 51.15 37.31 54.23C37.2794 55.6261 36.7112 56.9565 35.7238 57.9438C34.7364 58.9312 33.406 59.4994 32.0099 59.53C28.4595 59.5987 24.931 58.9588 21.6309 57.6476C18.3307 56.3364 15.3252 54.3803 12.79 51.8937C10.2548 49.4071 8.24089 46.4399 6.86609 43.1657C5.49129 39.8916 4.7832 36.3761 4.7832 32.825C4.7832 29.2739 5.49129 25.7585 6.86609 22.4843C8.24089 19.2101 10.2548 16.2429 12.79 13.7563C15.3252 11.2697 18.3307 9.31366 21.6309 8.00247C24.931 6.69127 28.4595 6.05131 32.0099 6.12002Z" fill="#ff8b97a5" /></svg>