<svg xmlns="http://www.w3.org/2000/svg" viewBox="0 0 65.0 65.0"><path d="M49.5906 21.48H38.5105C38.2453 21.48 37.991 21.3746 37.8035 21.1871C37.6159 20.9996 37.5105 20.7452 37.5105 20.48V9.37997H15.5806V56.38H49.5806L49.5906 21.48ZM38.5105 7.33999C38.6493 7.33905 38.7868 7.36699 38.9142 7.42208C39.0416 7.47717 39.1561 7.55822 39.2505 7.66L51.3105 19.72C51.4123 19.8144 51.4932 19.9289 51.5483 20.0563C51.6034 20.1837 51.6314 20.3212 51.6305 20.46V57.46C51.6305 57.7252 51.5252 57.9795 51.3376 58.1671C51.1501 58.3546 50.8957 58.46 50.6305 58.46H14.5605C14.2953 58.46 14.0409 58.3546 13.8534 58.1671C13.6659 57.9795 13.5605 57.7252 13.5605 57.46V8.36001C13.5605 8.09479 13.6659 7.84039 13.8534 7.65285C14.0409 7.46532 14.2953 7.36001 14.5605 7.36001L38.5105 7.33999ZM21.9105 21.48C21.6453 21.48 21.3909 21.3746 21.2034 21.1871C21.0158 20.9996 20.9105 20.7452 20.9105 20.48C20.9105 20.2148 21.0158 19.9604 21.2034 19.7729C21.3909 19.5853 21.6453 19.48 21.9105 19.48H31.0505C31.3158 19.48 31.57 19.5853 31.7576 19.7729C31.9451 19.9604 32.0505 20.2148 32.0505 20.48C32.0505 20.7452 31.9451 20.9996 31.7576 21.1871C31.57 21.3746 31.3158 21.48 31.0505 21.48H21.9105ZM21.9105 29.77C21.6453 29.77 21.3909 29.6646 21.2034 29.4771C21.0158 29.2895 20.9105 29.0352 20.9105 28.77C20.9105 28.5048 21.0158 28.2504 21.2034 28.0629C21.3909 27.8754 21.6453 27.77 21.9105 27.77H43.2405C43.5057 27.77 43.7601 27.8754 43.9476 28.0629C44.1352 28.2504 44.2405 28.5048 44.2405 28.77C44.2405 29.0352 44.1352 29.2895 43.9476 29.4771C43.7601 29.6646 43.5057 29.77 43.2405 29.77H21.9105ZM21.9105 38.05C21.6453 38.05 21.3909 37.9446 21.2034 37.7571C21.0158 37.5696 20.9105 37.3152 20.9105 37.05C20.9105 36.7848 21.0158 36.5304 21.2034 36.3429C21.3909 36.1553 21.6453 36.05 21.9105 36.05H43.2405C43.5057 36.05 43.7601 36.1553 43.9476 36.3429C44.1352 36.5304 44.2405 36.7848 44.2405 37.05C44.2405 37.3152 44.1352 37.5696 43.9476 37.7571C43.7601 37.9446 43.5057 38.05 43.2405 38.05H21.9105ZM21.9105 46.34C21.6453 46.34 21.3909 46.2346 21.2034 46.0471C21.0158 45.8595 20.9105 45.6052 20.9105 45.34C20.9105 45.0748 21.0158 44.8204 21.2034 44.6329C21.3909 44.4454 21.6453 44.34 21.9105 44.34H43.2405C43.5057 44.34 43.7601 44.4454 43.9476 44.6329C44.1352 44.8204 44.2405 45.0748 44.2405 45.34C44.2405 45.6052 44.1352 45.8595 43.9476 46.0471C43.7601 46.2346 43.5057 46.34 43.2405 46.34H21.9105ZM39.5305 19.44H48.1505L39.5305 10.82V19.44Z" fill="#ff8b97a5" /></svg>