<svg xmlns="http://www.w3.org/2000/svg" viewBox="0 0 65.0 64.0"><path d="M32.5097 11.3L11.4097 24.81L27.0797 38.02L31.8397 34.02C32.0222 33.8597 32.2568 33.7713 32.4997 33.7713C32.7426 33.7713 32.9772 33.8597 33.1597 34.02L37.9397 38.02L53.6097 24.86L32.5097 11.3ZM39.5097 39.3L54.2897 51.71V26.88L39.5097 39.3ZM10.7097 26.88V51.71L25.4897 39.3L10.7097 26.88ZM8.7097 24.7C8.70652 24.5157 8.75434 24.3341 8.84787 24.1753C8.9414 24.0165 9.07701 23.8866 9.23972 23.8L31.9797 9.25C32.143 9.14247 32.3342 9.08517 32.5297 9.08517C32.7252 9.08517 32.9164 9.14247 33.0797 9.25L55.7797 23.79C55.9477 23.8746 56.0884 24.0049 56.1857 24.1658C56.283 24.3268 56.3329 24.5119 56.3297 24.7V53.9C56.3297 54.1652 56.2244 54.4196 56.0368 54.6071C55.8493 54.7946 55.5949 54.9 55.3297 54.9H9.69971C9.43449 54.9 9.18014 54.7946 8.9926 54.6071C8.80506 54.4196 8.69971 54.1652 8.69971 53.9L8.7097 24.7ZM12.5197 52.88H52.5197L32.5197 36.06L12.5197 52.88Z" fill="#ff8b97a5" /></svg>