<svg xmlns="http://www.w3.org/2000/svg" viewBox="0 0 65.0 65.0"><path d="M10.2797 41.8199L37.3597 14.7499C38.54 13.5697 40.1407 12.9067 41.8098 12.9067C43.4788 12.9067 45.0795 13.5697 46.2597 14.7499C47.4399 15.9302 48.103 17.5309 48.103 19.2C48.103 20.869 47.4399 22.4697 46.2597 23.65L18.4197 51.4899C18.3259 51.5856 18.2139 51.6615 18.0902 51.7131C17.9665 51.7646 17.8337 51.7908 17.6997 51.79H10.2397C9.97453 51.79 9.72013 51.6846 9.53259 51.4971C9.34506 51.3095 9.23975 51.0552 9.23975 50.79V43.67C9.3373 42.9431 9.70941 42.2811 10.2797 41.8199ZM12.0797 42.91L18.0797 48.91L43.5897 23.4L37.5897 17.4L12.0797 42.91ZM16.0797 49.7499L11.2597 45.02V49.8L16.0797 49.7499ZM39.0797 15.96L45.0797 21.96C45.7607 21.1433 46.1117 20.1015 46.0637 19.0393C46.0157 17.9771 45.5722 16.9712 44.8203 16.2194C44.0684 15.4675 43.0626 15.0239 42.0004 14.976C40.9381 14.928 39.8963 15.279 39.0797 15.96Z" fill="#ff8b97a5" /></svg>