<svg xmlns="http://www.w3.org/2000/svg" viewBox="0 0 65.0 64.0"><path d="M14.19 50.68H29.9099V36.91H27.71C27.4448 36.91 27.1904 36.8046 27.0028 36.6171C26.8153 36.4296 26.71 36.1752 26.71 35.91V30.55C26.71 30.2848 26.8153 30.0304 27.0028 29.8429C27.1904 29.6553 27.4448 29.55 27.71 29.55H27.7899H29.9899V26.41C29.9408 25.0724 30.2888 23.7502 30.9899 22.61C31.6708 21.4451 32.6889 20.5142 33.9099 19.94C35.9599 19.07 39.4299 19.18 41.9099 19.26H42.46C42.7252 19.26 42.9795 19.3653 43.167 19.5529C43.3545 19.7404 43.46 19.9948 43.46 20.26V25.61C43.46 25.8752 43.3545 26.1296 43.167 26.3171C42.9795 26.5046 42.7252 26.61 42.46 26.61H42.3999C42.0399 26.61 41.6699 26.61 41.2899 26.61C40.2899 26.61 39.1199 26.52 38.7899 26.86C38.4599 27.2 38.4399 28.41 38.4899 29.46H42.4199C42.6852 29.46 42.9394 29.5653 43.127 29.7529C43.3145 29.9404 43.4199 30.1948 43.4199 30.46V30.55L42.8799 36.1C42.855 36.3475 42.7388 36.5769 42.5539 36.7433C42.3689 36.9097 42.1287 37.0012 41.8799 37H38.6299V50.69H50.0399C50.2522 50.6881 50.4558 50.6059 50.6099 50.46C50.7406 50.3146 50.8121 50.1255 50.81 49.93V14.12C50.8101 13.9074 50.7276 13.703 50.58 13.55C50.5056 13.4742 50.417 13.4139 50.3191 13.3727C50.2212 13.3315 50.1161 13.3102 50.0099 13.31H14.2499C14.1435 13.309 14.0381 13.3298 13.9401 13.3711C13.8421 13.4123 13.7536 13.4732 13.6799 13.55C13.5312 13.7031 13.4455 13.9066 13.44 14.12V49.88C13.4455 50.0934 13.5312 50.2969 13.6799 50.45C13.8187 50.5827 13.9987 50.6639 14.19 50.68ZM30.9099 52.68H14.19C13.8206 52.6813 13.4546 52.6095 13.1131 52.4688C12.7715 52.328 12.4612 52.1211 12.2 51.8599C11.9388 51.5987 11.7318 51.2884 11.5911 50.9469C11.4503 50.6054 11.3786 50.2394 11.3799 49.87V14.12C11.3786 13.7506 11.4503 13.3846 11.5911 13.0431C11.7318 12.7016 11.9388 12.3913 12.2 12.1301C12.4612 11.8689 12.7715 11.6619 13.1131 11.5212C13.4546 11.3804 13.8206 11.3087 14.19 11.31H49.95C50.3211 11.3068 50.6892 11.3776 51.0326 11.5184C51.376 11.6592 51.6879 11.8671 51.95 12.13C52.2128 12.3921 52.4207 12.7039 52.5615 13.0473C52.7023 13.3908 52.7731 13.7588 52.7699 14.13V49.89C52.7684 50.6031 52.4969 51.2891 52.0099 51.81L51.95 51.88C51.4162 52.4044 50.6982 52.6988 49.95 52.7H37.5399C37.2747 52.7 37.0203 52.5946 36.8328 52.4071C36.6452 52.2196 36.5399 51.9652 36.5399 51.7V36.02C36.5399 35.7548 36.6452 35.5004 36.8328 35.3129C37.0203 35.1253 37.2747 35.02 37.5399 35.02H40.9199L41.2599 31.48H37.4999C37.2347 31.48 36.9804 31.3746 36.7929 31.1871C36.6053 30.9996 36.4999 30.7452 36.4999 30.48V29.98C36.4399 28.48 36.3499 26.48 37.3499 25.45C38.3499 24.42 39.9199 24.54 41.3499 24.6H41.44V21.24C39.19 21.17 36.2599 21.12 34.7199 21.77C33.8824 22.1763 33.1858 22.8242 32.7199 23.63C32.225 24.4378 31.9782 25.3732 32.0099 26.32V30.53C32.0099 30.7952 31.9046 31.0496 31.7171 31.2371C31.5295 31.4246 31.2751 31.53 31.0099 31.53H28.7299V34.9H30.2999C30.5264 34.8851 30.7535 34.8851 30.9799 34.9C31.8599 34.98 31.9799 35.43 31.9199 36.04V51.58V51.67C31.9226 51.8038 31.8985 51.9368 31.8488 52.0612C31.7991 52.1855 31.7249 52.2985 31.6308 52.3936C31.5366 52.4888 31.4241 52.564 31.3003 52.6149C31.1765 52.6658 31.0438 52.6914 30.9099 52.69V52.68Z" fill="#ff8b97a5" /></svg>