<svg xmlns="http://www.w3.org/2000/svg" viewBox="0 0 65.0 65.0"><path d="M9.52003 37.02H7.67005C7.35221 37.0208 7.03733 36.9584 6.74378 36.8365C6.45023 36.7147 6.18384 36.5357 5.96003 36.31C5.73465 36.088 5.55575 35.8234 5.43385 35.5315C5.31194 35.2396 5.24944 34.9264 5.25001 34.61V31.28C5.24922 30.9622 5.3116 30.6474 5.43348 30.3538C5.55536 30.0603 5.73435 29.7938 5.96003 29.57L6.03004 29.51C6.4759 29.0966 7.06205 28.8679 7.67005 28.87H9.52003V26.96C9.52184 25.9023 9.9425 24.8884 10.69 24.14C11.0618 23.7687 11.5031 23.4743 11.9887 23.2735C12.4742 23.0727 12.9946 22.9696 13.52 22.97H15.52V21.97C15.5204 21.39 15.6354 20.8157 15.8585 20.2802C16.0816 19.7448 16.4084 19.2587 16.82 18.85C17.2274 18.4379 17.7125 18.1107 18.2472 17.8875C18.7819 17.6642 19.3556 17.5492 19.9351 17.5492C20.5145 17.5492 21.0882 17.6642 21.6229 17.8875C22.1576 18.1107 22.6427 18.4379 23.0501 18.85C23.4617 19.2587 23.7885 19.7448 24.0116 20.2802C24.2347 20.8157 24.3497 21.39 24.35 21.97V28.91H39.78V21.97C39.7836 20.8284 40.2278 19.7321 41.02 18.91L41.08 18.85C41.4874 18.4379 41.9725 18.1107 42.5072 17.8875C43.0419 17.6642 43.6156 17.5492 44.195 17.5492C44.7745 17.5492 45.3482 17.6642 45.8829 17.8875C46.4176 18.1107 46.9027 18.4379 47.3101 18.85C47.7204 19.2592 48.0456 19.7456 48.267 20.2811C48.4884 20.8166 48.6016 21.3906 48.6 21.97V22.97H50.6C51.6609 22.97 52.6783 23.3915 53.4285 24.1416C54.1786 24.8917 54.6 25.9092 54.6 26.97V28.88H56.46C57.0965 28.8817 57.7069 29.1331 58.16 29.58C58.3857 29.8038 58.5647 30.0702 58.6866 30.3638C58.8085 30.6573 58.8708 30.9722 58.8701 31.29V34.62C58.8706 34.9363 58.8081 35.2496 58.6862 35.5415C58.5643 35.8334 58.3854 36.098 58.16 36.32L58.09 36.39C57.6478 36.8027 57.065 37.0316 56.46 37.03H54.58V38.94C54.58 40.0009 54.1586 41.0183 53.4085 41.7684C52.6583 42.5186 51.6409 42.94 50.58 42.94H48.58V43.94C48.5805 44.5193 48.4668 45.093 48.2454 45.6284C48.0241 46.1637 47.6995 46.6502 47.29 47.06C46.6714 47.6726 45.8857 48.0888 45.0314 48.2565C44.1772 48.4242 43.2924 48.3359 42.4881 48.0027C41.6838 47.6694 40.9958 47.1061 40.5105 46.3834C40.0252 45.6606 39.7641 44.8106 39.76 43.94V37.02H24.26V43.96C24.2571 45.1312 23.7896 46.2533 22.96 47.08L22.9 47.14C22.275 47.7359 21.4891 48.1357 20.6394 48.29C19.7896 48.4442 18.9133 48.3461 18.1187 48.0079C17.3241 47.6696 16.646 47.106 16.1682 46.3866C15.6904 45.6672 15.4338 44.8236 15.4301 43.96V42.96H13.4301C12.3692 42.96 11.3518 42.5386 10.6016 41.7885C9.85149 41.0383 9.43006 40.0209 9.43006 38.96L9.52003 37.02ZM48.63 25.02V40.9H50.63C50.8903 40.9067 51.1492 40.8612 51.3916 40.7662C51.634 40.6712 51.8549 40.5286 52.0413 40.3469C52.2277 40.1651 52.3759 39.9479 52.477 39.708C52.5781 39.4681 52.6301 39.2104 52.63 38.95V26.95C52.63 26.4196 52.4193 25.9109 52.0443 25.5358C51.6692 25.1608 51.1604 24.95 50.63 24.95L48.63 25.02ZM54.58 30.92V35H56.44C56.5264 34.9993 56.6105 34.9713 56.6801 34.92C56.715 34.8864 56.7427 34.8459 56.7616 34.8013C56.7805 34.7566 56.7902 34.7085 56.79 34.66V31.33C56.7901 31.2309 56.7514 31.1358 56.6823 31.0648C56.6132 30.9938 56.5191 30.9526 56.4201 30.95L54.58 30.92ZM39.8001 30.92H24.3001V35H39.78L39.8001 30.92ZM44.22 19.57C43.5894 19.5716 42.9852 19.8233 42.54 20.27C42.1159 20.7105 41.8792 21.2985 41.88 21.91V43.91C41.88 44.5413 42.1308 45.1466 42.5771 45.593C43.0234 46.0393 43.6288 46.29 44.26 46.29C44.8912 46.29 45.4966 46.0393 45.9429 45.593C46.3893 45.1466 46.64 44.5413 46.64 43.91V21.91C46.6374 21.2796 46.3858 20.6758 45.9401 20.23C45.4943 19.7843 44.8904 19.5327 44.26 19.53L44.22 19.57ZM9.52003 30.92H7.67005C7.58188 30.9205 7.49678 30.9524 7.43006 31.01C7.35987 31.0824 7.3204 31.1792 7.32001 31.28V34.61C7.31989 34.6586 7.32955 34.7066 7.34846 34.7513C7.36736 34.796 7.39515 34.8363 7.43006 34.87C7.46527 34.9057 7.50731 34.9338 7.55372 34.9528C7.60013 34.9717 7.64991 34.9809 7.70002 34.98H9.55006L9.52003 30.92ZM15.52 25.02H13.52C12.9896 25.02 12.4809 25.2308 12.1058 25.6058C11.7308 25.9809 11.52 26.4896 11.52 27.02V39.02C11.5331 39.5417 11.7496 40.0377 12.1232 40.402C12.4969 40.7664 12.9981 40.9702 13.52 40.97H15.52V25.02ZM19.94 19.57C19.3096 19.5726 18.7058 19.8243 18.26 20.27C17.8142 20.7158 17.5627 21.3196 17.5601 21.95V43.95C17.5627 44.5787 17.8129 45.181 18.2565 45.6265C18.7001 46.072 19.3014 46.3248 19.9301 46.33C20.5416 46.3308 21.1295 46.0942 21.57 45.67C22.0167 45.2249 22.2685 44.6206 22.27 43.99V21.99C22.2717 21.6783 22.2115 21.3693 22.0931 21.081C21.9747 20.7926 21.8003 20.5306 21.58 20.31C21.3671 20.0685 21.1077 19.8724 20.8174 19.7332C20.5271 19.5941 20.2116 19.5148 19.89 19.5L19.94 19.57Z" fill="#ff8b97a5" /></svg>