<svg xmlns="http://www.w3.org/2000/svg" viewBox="0 0 65.0 64.0"><path d="M51.5502 31.02C51.3396 27.0553 49.9888 23.2357 47.6602 20.02C45.4148 20.6989 43.2082 21.5001 41.0502 22.42C41.6707 25.2392 42.0057 28.1137 42.0502 31L51.5502 31.02ZM46.2702 18.34C43.6476 15.4655 40.2576 13.401 36.5002 12.39C38.3986 14.7571 39.763 17.5065 40.5002 20.45C42.5802 19.56 44.5002 18.86 46.2702 18.3V18.34ZM25.9701 51.69C22.0901 47.31 20.6702 39.56 20.4402 33.95C17.6923 35.8714 15.0825 37.9832 12.6302 40.27C13.8737 43.0353 15.7154 45.4904 18.0221 47.4583C20.3289 49.4261 23.0434 50.8577 25.9701 51.65V51.69ZM16.8002 49.13C6.12021 52.18 1.86015 48.34 10.2402 39.78C8.42038 34.8306 8.40687 29.3976 10.2018 24.4391C11.9968 19.4807 15.4849 15.3153 20.0512 12.6777C24.6175 10.04 29.9685 9.0995 35.1606 10.022C40.3526 10.9445 45.0521 13.6708 48.4302 17.72C60.0902 14.72 61.2002 20.4 53.2602 28.08C54.058 32.6067 53.4427 37.2693 51.4978 41.434C49.553 45.5988 46.373 49.0637 42.3899 51.3578C38.4069 53.6519 33.814 54.664 29.2356 54.2565C24.6573 53.8489 20.3154 52.0416 16.8002 49.08V49.13ZM11.8601 38.21C13.8777 36.3746 15.9978 34.6551 18.2102 33.06H10.9302C11.0168 34.7965 11.3294 36.5143 11.8601 38.17V38.21ZM22.4801 30.11C27.6252 26.7272 33.0364 23.7675 38.6602 21.26C37.7302 17.91 35.2302 11.7 31.2402 11.7C24.8502 11.66 22.6801 25.44 22.4801 30.07V30.11ZM52.7201 25.75C58.0601 20.25 57.8901 17.51 49.7201 19.48C51.0381 21.388 52.0503 23.4899 52.7201 25.71V25.75ZM39.1502 23.26C34.1777 25.4935 29.375 28.0871 24.7802 31.02H39.9801C39.9461 28.3999 39.6682 25.7886 39.1502 23.22V23.26ZM11.1502 41.8C5.37019 47.87 7.68019 49.37 15.1502 47.5C13.5087 45.8099 12.1421 43.8731 11.1001 41.76L11.1502 41.8ZM42.1502 33.06C42.0302 38.89 40.6403 47.12 36.5903 51.69C40.7355 50.563 44.4184 48.1544 47.1125 44.8084C49.8065 41.4624 51.3738 37.3503 51.5903 33.06H42.1502ZM11.0202 31.06H20.5002C20.6302 25.22 22.0102 17 26.0602 12.43C21.894 13.5259 18.1835 15.9169 15.4642 19.2581C12.7448 22.5993 11.1572 26.718 10.9302 31.02L11.0202 31.06ZM40.1101 33.06H22.5402C22.6502 37.79 24.7002 52.37 31.3302 52.37C37.9602 52.37 39.9202 37.75 40.0202 33.02L40.1101 33.06Z" fill="#ff8b97a5" /></svg>