<svg xmlns="http://www.w3.org/2000/svg" viewBox="0 0 65.0 65.0"><path d="M21.0505 13.88H43.0505C45.1025 13.8827 47.0697 14.699 48.5206 16.1499C49.9716 17.6009 50.7879 19.5681 50.7905 21.62V43.62C50.7879 45.672 49.9716 47.6392 48.5206 49.0901C47.0697 50.5411 45.1025 51.3574 43.0505 51.36H21.0505C18.9986 51.3574 17.0314 50.5411 15.5804 49.0901C14.1295 47.6392 13.3132 45.672 13.3105 43.62V21.62C13.3132 19.5681 14.1295 17.6009 15.5804 16.1499C17.0314 14.699 18.9986 13.8827 21.0505 13.88ZM42.5605 19.79C43.0115 19.79 43.4523 19.9237 43.8273 20.1743C44.2022 20.4248 44.4944 20.7809 44.667 21.1975C44.8396 21.6141 44.8847 22.0726 44.7968 22.5148C44.7088 22.9571 44.4916 23.3634 44.1727 23.6822C43.8539 24.0011 43.4476 24.2182 43.0054 24.3062C42.5631 24.3942 42.1046 24.349 41.688 24.1765C41.2714 24.0039 40.9153 23.7117 40.6648 23.3367C40.4143 22.9618 40.2805 22.5209 40.2805 22.07C40.2805 21.4653 40.5208 20.8854 40.9484 20.4578C41.3759 20.0302 41.9559 19.79 42.5605 19.79ZM32.0706 23.11C34.2036 23.1102 36.2707 23.8501 37.9194 25.2034C39.5682 26.5568 40.6966 28.44 41.1125 30.5322C41.5285 32.6243 41.2061 34.7959 40.2004 36.677C39.1947 38.5582 37.568 40.0324 35.5972 40.8485C33.6264 41.6646 31.4336 41.7721 29.3925 41.1528C27.3513 40.5334 25.5879 39.2254 24.403 37.4518C23.218 35.6781 22.6848 33.5484 22.894 31.4256C23.1033 29.3028 24.0421 27.3182 25.5505 25.81C27.2811 24.0829 29.6256 23.112 32.0706 23.11ZM37.1705 27.23C35.9903 26.0476 34.4364 25.311 32.7739 25.146C31.1114 24.9809 29.4431 25.3975 28.0533 26.3247C26.6636 27.252 25.6384 28.6326 25.1526 30.231C24.6667 31.8295 24.7502 33.547 25.3889 35.0908C26.0276 36.6346 27.182 37.9091 28.6552 38.6971C30.1283 39.4851 31.8292 39.7378 33.4679 39.4121C35.1065 39.0865 36.5815 38.2026 37.6415 36.9112C38.7014 35.6198 39.2807 34.0007 39.2805 32.33C39.2804 30.4177 38.5215 28.5835 37.1705 27.23ZM43.0906 15.89H21.0906C19.5717 15.8927 18.1158 16.4972 17.0417 17.5712C15.9677 18.6452 15.3631 20.1011 15.3605 21.62V43.62C15.3631 45.1398 15.9674 46.5968 17.0411 47.6724C18.1149 48.748 19.5708 49.3547 21.0906 49.36H43.0906C44.6104 49.3547 46.0662 48.748 47.1399 47.6724C48.2136 46.5968 48.8179 45.1398 48.8206 43.62V21.62C48.8179 20.1011 48.2133 18.6452 47.1393 17.5712C46.0653 16.4972 44.6095 15.8927 43.0906 15.89Z" fill="#ff8b97a5" /></svg>