<svg xmlns="http://www.w3.org/2000/svg" viewBox="0 0 65.0 65.0"><path d="M8.97025 15.02H35.1003C36.6165 15.0226 38.0698 15.6261 39.142 16.6982C40.2141 17.7704 40.8176 19.2237 40.8203 20.7399V22.15H51.5902C51.7242 22.1492 51.857 22.1753 51.9807 22.2269C52.1044 22.2784 52.2164 22.3543 52.3102 22.45L60.4803 30.6199C60.5802 30.7152 60.6594 30.8302 60.7127 30.9575C60.7661 31.0849 60.7925 31.2219 60.7903 31.36V38.14C60.7881 39.5048 60.2997 40.8241 59.4127 41.8614C58.5257 42.8987 57.2982 43.586 55.9503 43.8C55.7222 45.4547 54.9049 46.9716 53.6486 48.0724C52.3922 49.1731 50.7809 49.7838 49.1106 49.7923C47.4403 49.8008 45.8229 49.2066 44.5553 48.1187C43.2878 47.0308 42.4552 45.5222 42.2102 43.8699H21.7003C21.453 45.522 20.6182 47.0294 19.3491 48.1155C18.0799 49.2017 16.4616 49.7936 14.7912 49.7827C13.1208 49.7717 11.5104 49.1586 10.2556 48.056C9.00081 46.9533 8.18581 45.4351 7.96024 43.78C6.63854 43.5393 5.44285 42.8435 4.58066 41.8132C3.71847 40.783 3.24421 39.4834 3.24023 38.14V20.7399C3.24552 19.2228 3.85123 17.7695 4.92496 16.6976C5.99868 15.6258 7.45309 15.0226 8.97025 15.02ZM53.9702 42.85C53.9722 41.878 53.6857 40.9273 53.1469 40.1183C52.6082 39.3094 51.8414 38.6785 50.9438 38.3057C50.0463 37.9328 49.0582 37.8347 48.1048 38.0238C47.1514 38.2129 46.2756 38.6808 45.5883 39.3681C44.9011 40.0554 44.4332 40.9311 44.2441 41.8845C44.055 42.8379 44.153 43.826 44.5259 44.7236C44.8988 45.6212 45.5296 46.3879 46.3386 46.9266C47.1476 47.4654 48.0983 47.7519 49.0703 47.7499C49.7184 47.75 50.3602 47.6217 50.9585 47.3724C51.5568 47.1232 52.0999 46.7579 52.5564 46.2977C53.0128 45.8375 53.3737 45.2916 53.618 44.6912C53.8624 44.0909 53.9855 43.4481 53.9803 42.8L53.9702 42.85ZM55.9102 41.73C56.7151 41.5335 57.431 41.0732 57.9438 40.4226C58.4567 39.772 58.7371 38.9684 58.7402 38.14V31.78L51.1602 24.1899H40.7802V41.83H42.1703C42.416 40.1952 43.2372 38.7018 44.4861 37.6187C45.735 36.5356 47.3294 35.9339 48.9825 35.9218C50.6356 35.9098 52.2387 36.4882 53.5032 37.553C54.7678 38.6178 55.6107 40.099 55.8802 41.73H55.9102ZM19.7802 42.8C19.7802 41.8309 19.4929 40.8834 18.9544 40.0776C18.416 39.2718 17.6508 38.6438 16.7554 38.2729C15.86 37.9021 14.8748 37.8051 13.9243 37.9941C12.9738 38.1832 12.1007 38.6499 11.4154 39.3351C10.7301 40.0204 10.2635 40.8935 10.0744 41.844C9.88533 42.7945 9.98237 43.7798 10.3532 44.6751C10.7241 45.5705 11.3522 46.3357 12.158 46.8741C12.9638 47.4126 13.9111 47.7 14.8802 47.7C16.1798 47.7 17.4261 47.1837 18.3451 46.2648C19.264 45.3458 19.7802 44.0995 19.7802 42.8ZM21.7802 41.8H38.7802V20.6899C38.775 19.7156 38.3856 18.7826 37.6966 18.0936C37.0076 17.4046 36.0746 17.0152 35.1003 17.0099H8.97025C7.99413 17.0126 7.05859 17.4008 6.36743 18.0901C5.67628 18.7794 5.28552 19.7138 5.28024 20.6899V38.09C5.28301 38.8974 5.54912 39.682 6.03821 40.3245C6.5273 40.967 7.21265 41.4323 7.99023 41.65C8.2632 40.0194 9.10931 38.5398 10.3762 37.4777C11.6431 36.4155 13.2476 35.8405 14.9008 35.8561C16.554 35.8718 18.1473 36.4772 19.3938 37.5632C20.6403 38.6492 21.4583 40.1445 21.7003 41.78L21.7802 41.8Z" fill="#ff8b97a5" /></svg>