<svg xmlns="http://www.w3.org/2000/svg" viewBox="0 0 65.0 65.0"><path d="M32.51 6.17993C27.519 6.20178 22.6814 7.90713 18.78 11.02C18.6756 11.102 18.556 11.1627 18.4282 11.1986C18.3003 11.2345 18.1666 11.2449 18.0348 11.2291C17.9029 11.2133 17.7755 11.1717 17.6597 11.1066C17.5439 11.0416 17.442 10.9544 17.36 10.85C17.2779 10.7456 17.2172 10.626 17.1813 10.4982C17.1454 10.3703 17.1351 10.2366 17.1509 10.1047C17.1667 9.97288 17.2083 9.84546 17.2733 9.72968C17.3384 9.61389 17.4256 9.51201 17.53 9.42993C21.8085 6.02756 27.1136 4.17535 32.58 4.17535C38.0464 4.17535 43.3515 6.02756 47.63 9.42993C47.8408 9.59834 47.9761 9.84364 48.0061 10.1118C48.0361 10.38 47.9584 10.6491 47.79 10.86C47.6216 11.0708 47.3763 11.2061 47.1081 11.2361C46.8399 11.2662 46.5708 11.1884 46.36 11.02C42.4295 7.87586 37.5432 6.16827 32.51 6.17993ZM59.1 19.1199C61.1834 20.3321 62.7811 22.2302 63.62 24.4899C63.7164 24.7329 63.7139 25.0039 63.613 25.2451C63.512 25.4862 63.3207 25.6782 63.08 25.78C60.2428 27.2775 57.0831 28.0602 53.875 28.0602C50.6668 28.0602 47.5072 27.2775 44.67 25.78C44.4519 25.668 44.2825 25.4799 44.194 25.2513C44.1055 25.0227 44.1041 24.7696 44.19 24.54C45.029 22.2778 46.6264 20.3765 48.71 19.16C48.2721 18.3669 48.0214 17.4841 47.9771 16.5792C47.9328 15.6743 48.0961 14.7713 48.4544 13.9393C48.8128 13.1072 49.3567 12.3681 50.0446 11.7786C50.7325 11.189 51.5461 10.7647 52.4232 10.5379C53.3003 10.3111 54.2177 10.288 55.1051 10.4703C55.9925 10.6526 56.8265 11.0354 57.5433 11.5895C58.26 12.1437 58.8404 12.8545 59.2402 13.6674C59.6401 14.4804 59.8486 15.374 59.85 16.28C59.8443 17.2748 59.5862 18.252 59.1 19.1199ZM57.8 20.72C56.7194 21.6585 55.3362 22.1752 53.905 22.1752C52.4737 22.1752 51.0906 21.6585 50.01 20.72C48.4775 21.5401 47.2372 22.8153 46.46 24.3699C48.7951 25.4437 51.3348 25.9997 53.905 25.9997C56.4751 25.9997 59.0149 25.4437 61.35 24.3699C60.5703 22.8104 59.3219 21.5341 57.78 20.72H57.8ZM53.91 12.34C53.269 12.3407 52.638 12.4995 52.0729 12.8022C51.5079 13.1049 51.0261 13.5422 50.6704 14.0754C50.3146 14.6087 50.0957 15.2213 50.0332 15.8593C49.9706 16.4973 50.0663 17.1408 50.3117 17.733C50.5571 18.3252 50.9447 18.8478 51.4402 19.2545C51.9357 19.6612 52.5238 19.9395 53.1524 20.0648C53.7811 20.19 54.431 20.1584 55.0445 19.9727C55.658 19.7869 56.2163 19.4528 56.67 18.9999C57.2163 18.4545 57.5885 17.7592 57.7394 17.0021C57.8902 16.2449 57.813 15.4601 57.5174 14.7469C57.2219 14.0337 56.7213 13.4243 56.0791 12.9958C55.4369 12.5673 54.682 12.3391 53.91 12.34ZM16.3 19.1199C18.3834 20.3321 19.9811 22.2302 20.82 24.4899C20.9164 24.7329 20.9139 25.0039 20.813 25.2451C20.712 25.4862 20.5207 25.6782 20.28 25.78C17.4428 27.2775 14.2831 28.0602 11.075 28.0602C7.86684 28.0602 4.70715 27.2775 1.86997 25.78C1.65368 25.6664 1.48647 25.4775 1.39988 25.2491C1.31329 25.0206 1.31332 24.7684 1.39997 24.54C2.2321 22.2768 3.82688 20.3744 5.90998 19.16C5.47208 18.3669 5.22138 17.4841 5.17709 16.5792C5.13279 15.6743 5.29607 14.7713 5.65441 13.9393C6.01276 13.1072 6.55668 12.3681 7.24458 11.7786C7.93247 11.189 8.74609 10.7647 9.62321 10.5379C10.5003 10.3111 11.4177 10.288 12.3051 10.4703C13.1926 10.6526 14.0265 11.0354 14.7433 11.5895C15.46 12.1437 16.0404 12.8545 16.4403 13.6674C16.8401 14.4804 17.0486 15.374 17.05 16.28C17.0443 17.2748 16.7862 18.252 16.3 19.1199ZM15 20.72C13.921 21.6577 12.5395 22.1741 11.11 22.1741C9.68042 22.1741 8.29897 21.6577 7.21998 20.72C5.6826 21.5368 4.43818 22.8126 3.65998 24.3699C5.99508 25.4437 8.53482 25.9997 11.105 25.9997C13.6751 25.9997 16.2149 25.4437 18.55 24.3699C17.7788 22.811 16.5369 21.5341 15 20.72ZM11.11 12.34C10.4689 12.3407 9.83799 12.4995 9.27293 12.8022C8.70787 13.1049 8.22613 13.5422 7.87035 14.0754C7.51458 14.6087 7.29573 15.2213 7.23316 15.8593C7.1706 16.4973 7.26627 17.1408 7.51168 17.733C7.75709 18.3252 8.14469 18.8478 8.64018 19.2545C9.13566 19.6612 9.72377 19.9395 10.3524 20.0648C10.9811 20.19 11.631 20.1584 12.2445 19.9727C12.858 19.7869 13.4163 19.4528 13.87 18.9999C14.5974 18.2652 15.0069 17.2739 15.01 16.2399C15.0113 15.7274 14.9113 15.2197 14.7158 14.7459C14.5203 14.2721 14.2331 13.8417 13.8706 13.4793C13.5082 13.1169 13.0778 12.8297 12.604 12.6342C12.1302 12.4386 11.6225 12.3386 11.11 12.34ZM37.33 51.64C39.4157 52.8539 41.0139 54.7561 41.85 57.02C41.9428 57.2629 41.9372 57.5325 41.8345 57.7715C41.7319 58.0105 41.5401 58.2001 41.3 58.3C38.4646 59.7975 35.3065 60.5801 32.1 60.5801C28.8934 60.5801 25.7354 59.7975 22.9 58.3C22.6819 58.1881 22.5125 57.9999 22.424 57.7713C22.3355 57.5427 22.3341 57.2895 22.42 57.0599C23.2561 54.7961 24.8542 52.8939 26.94 51.6799C26.4343 50.7743 26.1742 49.7523 26.1853 48.7151C26.1965 47.678 26.4786 46.6618 27.0036 45.7673C27.5286 44.8728 28.2784 44.1311 29.1785 43.6157C30.0786 43.1003 31.0978 42.8292 32.135 42.8292C33.1722 42.8292 34.1914 43.1003 35.0915 43.6157C35.9916 44.1311 36.7413 44.8728 37.2664 45.7673C37.7914 46.6618 38.0735 47.678 38.0846 48.7151C38.0958 49.7523 37.8356 50.7743 37.33 51.6799V51.64ZM36.03 53.2399C34.9494 54.1784 33.5662 54.6953 32.135 54.6953C30.7037 54.6953 29.3206 54.1784 28.24 53.2399C26.7075 54.06 25.4672 55.3353 24.69 56.89C27.0233 57.9703 29.5637 58.5298 32.135 58.5298C34.7062 58.5298 37.2467 57.9703 39.58 56.89C38.8055 55.3334 37.5644 54.0573 36.03 53.2399ZM32.14 44.86C31.3686 44.86 30.6146 45.0887 29.9732 45.5172C29.3319 45.9458 28.832 46.5549 28.5368 47.2675C28.2417 47.9801 28.1644 48.7643 28.3149 49.5208C28.4654 50.2773 28.8368 50.9723 29.3823 51.5177C29.9277 52.0631 30.6226 52.4345 31.3791 52.585C32.1357 52.7355 32.9198 52.6583 33.6325 52.3631C34.3451 52.0679 34.9542 51.568 35.3827 50.9267C35.8112 50.2853 36.04 49.5313 36.04 48.7599C36.0413 48.2474 35.9413 47.7397 35.7458 47.2659C35.5503 46.7922 35.2631 46.3617 34.9006 45.9993C34.5382 45.6369 34.1078 45.3496 33.634 45.1541C33.1602 44.9586 32.6525 44.8587 32.14 44.86ZM8.39997 31.3C8.36947 31.0348 8.44558 30.7682 8.61155 30.5591C8.77752 30.35 9.01976 30.2154 9.28498 30.1849C9.5502 30.1544 9.81666 30.2306 10.0258 30.3965C10.2349 30.5625 10.3695 30.8047 10.4 31.0699C10.8552 34.8786 12.2921 38.5037 14.57 41.59C16.8581 44.6927 19.9057 47.1549 23.42 48.7399C23.5415 48.7944 23.651 48.8723 23.7424 48.9692C23.8337 49.066 23.9051 49.1799 23.9525 49.3043C23.9998 49.4288 24.0222 49.5613 24.0184 49.6944C24.0145 49.8275 23.9845 49.9585 23.93 50.08C23.8755 50.2014 23.7976 50.311 23.7008 50.4023C23.6039 50.4937 23.49 50.5651 23.3656 50.6125C23.2412 50.6598 23.1086 50.6822 22.9756 50.6783C22.8425 50.6745 22.7114 50.6445 22.59 50.59C18.7546 48.861 15.4281 46.175 12.93 42.79C10.4475 39.4185 8.88628 35.4585 8.39997 31.3ZM41.59 50.9399C41.3354 51.0474 41.0485 51.0492 40.7925 50.9451C40.5365 50.841 40.3324 50.6396 40.225 50.3849C40.1176 50.1303 40.1157 49.8435 40.2198 49.5875C40.3238 49.3315 40.5254 49.1274 40.78 49.02C44.48 47.5158 47.7113 45.0509 50.14 41.8799C52.5591 38.7248 54.0857 34.9774 54.56 31.03C54.5918 30.7648 54.7277 30.523 54.9377 30.358C55.1478 30.1929 55.4148 30.1181 55.68 30.15C55.9452 30.1818 56.1869 30.3177 56.3519 30.5277C56.517 30.7378 56.5918 31.0047 56.56 31.27C56.038 35.5825 54.3719 39.6769 51.7343 43.1285C49.0968 46.5802 45.5839 49.2634 41.56 50.9L41.59 50.9399Z" fill="#ff8b97a5" /></svg>