<svg xmlns="http://www.w3.org/2000/svg" viewBox="0 0 65.0 65.0"><path d="M32.0201 57.72C36.931 57.72 41.7317 56.2637 45.815 53.5353C49.8982 50.807 53.0807 46.9291 54.9601 42.392C56.8394 37.8549 57.3311 32.8624 56.373 28.0458C55.415 23.2293 53.0501 18.8051 49.5776 15.3325C46.1051 11.86 41.6808 9.49512 36.8642 8.53705C32.0477 7.57898 27.0552 8.07069 22.5181 9.95002C17.981 11.8293 14.1031 15.0119 11.3747 19.0952C8.64639 23.1784 7.19014 27.979 7.19014 32.89C7.20072 39.472 9.82012 45.7815 14.4744 50.4357C19.1286 55.09 25.4381 57.7094 32.0201 57.72ZM40.3201 23.32C40.5018 23.5189 40.597 23.7818 40.5848 24.0509C40.5726 24.32 40.4541 24.5733 40.2551 24.7549C40.0562 24.9366 39.7933 25.0318 39.5242 25.0197C39.2551 25.0075 39.0018 24.8889 38.8201 24.6899C38.4203 24.2457 37.9313 23.8906 37.3852 23.6476C36.839 23.4047 36.2479 23.2794 35.6501 23.28H33.0401V31.8699H35.4701C37.149 31.8699 38.759 32.5369 39.9461 33.724C41.1332 34.9111 41.8001 36.5211 41.8001 38.2C41.8001 39.8788 41.1332 41.4889 39.9461 42.676C38.759 43.8631 37.149 44.53 35.4701 44.53H33.0401V46.36C33.0401 46.6252 32.9348 46.8795 32.7472 47.0671C32.5597 47.2546 32.3054 47.36 32.0401 47.36C31.7749 47.36 31.5206 47.2546 31.333 47.0671C31.1455 46.8795 31.0401 46.6252 31.0401 46.36V44.53H28.4301C27.5482 44.5284 26.6763 44.3426 25.8704 43.9844C25.0645 43.6262 24.3423 43.1036 23.7501 42.45C23.5685 42.2497 23.4738 41.9855 23.4869 41.7155C23.5 41.4454 23.6199 41.1916 23.8201 41.01C24.0204 40.8283 24.2846 40.7336 24.5546 40.7467C24.8247 40.7598 25.0785 40.8797 25.2602 41.08C25.66 41.5242 26.1489 41.8794 26.6951 42.1223C27.2412 42.3652 27.8324 42.4905 28.4301 42.4899H31.0401V33.9H28.6101C27.7789 33.9 26.9558 33.7362 26.1878 33.4181C25.4198 33.1 24.7219 32.6338 24.1341 32.046C23.5463 31.4582 23.0801 30.7604 22.762 29.9924C22.4439 29.2244 22.2801 28.4012 22.2801 27.57C22.2801 26.7387 22.4439 25.9156 22.762 25.1476C23.0801 24.3796 23.5463 23.6818 24.1341 23.094C24.7219 22.5062 25.4198 22.0399 26.1878 21.7218C26.9558 21.4037 27.7789 21.2399 28.6101 21.2399H31.0401V19.7C31.0401 19.4347 31.1455 19.1804 31.333 18.9929C31.5206 18.8053 31.7749 18.7 32.0401 18.7C32.3054 18.7 32.5597 18.8053 32.7472 18.9929C32.9348 19.1804 33.0401 19.4347 33.0401 19.7V21.2399H35.6501C36.5307 21.241 37.4012 21.4267 38.2056 21.785C39.01 22.1432 39.7303 22.6661 40.3201 23.32ZM31.0001 23.32H28.5701C27.9887 23.2919 27.4076 23.3822 26.862 23.5854C26.3165 23.7886 25.8179 24.1004 25.3965 24.502C24.975 24.9035 24.6395 25.3865 24.4103 25.9216C24.1811 26.4567 24.0628 27.0328 24.0628 27.6149C24.0628 28.1971 24.1811 28.7732 24.4103 29.3083C24.6395 29.8434 24.975 30.3264 25.3965 30.728C25.8179 31.1296 26.3165 31.4414 26.862 31.6445C27.4076 31.8477 27.9887 31.938 28.5701 31.91H31.0001V23.32ZM35.4701 33.9399H33.0401V42.53H35.4701C36.5734 42.4767 37.6138 42.0009 38.3758 41.2013C39.1378 40.4017 39.5628 39.3395 39.5628 38.235C39.5628 37.1304 39.1378 36.0683 38.3758 35.2686C37.6138 34.469 36.5734 33.9932 35.4701 33.9399ZM32.0201 59.8C26.7053 59.802 21.5093 58.2277 17.0893 55.2764C12.6692 52.3251 9.22363 48.1293 7.18837 43.2196C5.15311 38.3099 4.61958 32.907 5.65523 27.694C6.69089 22.4811 9.2492 17.6924 13.0066 13.9335C16.7641 10.1747 21.5518 7.61457 26.7644 6.57697C31.9769 5.53938 37.3801 6.07094 42.2905 8.10438C47.201 10.1378 51.3981 13.5818 54.351 18.0007C57.304 22.4197 58.8801 27.6151 58.8801 32.9299C58.8564 40.0436 56.0179 46.8587 50.985 51.886C45.952 56.9133 39.1338 59.7441 32.0201 59.76V59.8Z" fill="#ff8b97a5" /></svg>