<svg xmlns="http://www.w3.org/2000/svg" viewBox="0 0 65.0 65.0"><path d="M33.5604 47.27V52.16H37.5604C38.9794 52.1626 40.3397 52.7268 41.3441 53.7292C42.3484 54.7317 42.9151 56.0909 42.9204 57.5099C42.9204 57.7752 42.815 58.0295 42.6275 58.217C42.44 58.4046 42.1856 58.5099 41.9204 58.5099H23.1504C22.8852 58.5099 22.6308 58.4046 22.4433 58.217C22.2558 58.0295 22.1504 57.7752 22.1504 57.5099C22.1557 56.0909 22.7224 54.7317 23.7267 53.7292C24.7311 52.7268 26.0914 52.1626 27.5104 52.16H31.5104V47.27C27.0885 47.0004 22.9355 45.0563 19.8962 41.8331C16.857 38.61 15.16 34.35 15.1504 29.92V27.41C15.1504 27.1448 15.2558 26.8904 15.4433 26.7029C15.6308 26.5153 15.8852 26.41 16.1504 26.41C16.4156 26.41 16.6699 26.5153 16.8575 26.7029C17.045 26.8904 17.1504 27.1448 17.1504 27.41V29.92C17.2526 33.9219 18.9141 37.7255 21.7807 40.5199C24.6473 43.3143 28.4922 44.8782 32.4954 44.8782C36.4987 44.8782 40.3435 43.3143 43.2101 40.5199C46.0767 37.7255 47.7382 33.9219 47.8404 29.92V27.41C47.8404 27.1448 47.9458 26.8904 48.1333 26.7029C48.3208 26.5153 48.5752 26.41 48.8404 26.41C49.1056 26.41 49.3599 26.5153 49.5475 26.7029C49.735 26.8904 49.8404 27.1448 49.8404 27.41V29.92C49.8321 34.3371 48.1462 38.586 45.1237 41.8071C42.1013 45.0282 37.9681 46.9809 33.5604 47.27ZM23.3704 18.8699H41.7104V17.3799C41.7104 14.9479 40.7442 12.6155 39.0245 10.8958C37.3048 9.1761 34.9724 8.20996 32.5404 8.20996C30.1084 8.20996 27.7759 9.1761 26.0562 10.8958C24.3365 12.6155 23.3704 14.9479 23.3704 17.3799V18.8699ZM41.7104 20.8699H23.3704V29.8699C23.3704 32.302 24.3365 34.6344 26.0562 36.3541C27.7759 38.0738 30.1084 39.04 32.5404 39.04C34.9724 39.04 37.3048 38.0738 39.0245 36.3541C40.7442 34.6344 41.7104 32.302 41.7104 29.8699V20.8699ZM32.5404 6.12994C34.0173 6.12994 35.4797 6.42102 36.8441 6.98651C38.2084 7.552 39.448 8.38081 40.4918 9.4256C41.5357 10.4704 42.3634 11.7106 42.9277 13.0755C43.4919 14.4404 43.7817 15.903 43.7804 17.3799V29.92C43.8252 31.4196 43.5685 32.913 43.0256 34.3116C42.4826 35.7102 41.6645 36.9855 40.6196 38.0621C39.5747 39.1387 38.3243 39.9946 36.9425 40.5791C35.5607 41.1636 34.0757 41.4647 32.5754 41.4647C31.0751 41.4647 29.5901 41.1636 28.2083 40.5791C26.8265 39.9946 25.5762 39.1387 24.5312 38.0621C23.4863 36.9855 22.6681 35.7102 22.1252 34.3116C21.5822 32.913 21.3256 31.4196 21.3704 29.92V17.3799C21.3783 14.4162 22.5563 11.5755 24.6483 9.47607C26.7402 7.37664 29.5767 6.18843 32.5404 6.16998V6.12994ZM24.3304 56.45H40.7204C40.4989 55.786 40.0751 55.208 39.5083 54.7973C38.9415 54.3866 38.2604 54.1637 37.5604 54.16H27.4904C26.7852 54.165 26.0996 54.3931 25.5319 54.8116C24.9643 55.2302 24.5436 55.8177 24.3304 56.4899V56.45Z" fill="#ff8b97a5" /></svg>