<svg xmlns="http://www.w3.org/2000/svg" viewBox="0 0 65.0 65.0"><path d="M56.5,32.5 C56.5,45.75 45.75,56.5 32.5,56.5 C19.25,56.5 8.5,45.75 8.5,32.5 C8.5,19.25 19.25,8.5 32.5,8.5 C45.75,8.5 56.5,19.25 56.5,32.5 Z M51.5,32.5 C51.5,22.01 42.99,13.5 32.5,13.5 C22.01,13.5 13.5,22.01 13.5,32.5 C13.5,42.99 22.01,51.5 32.5,51.5 C42.99,51.5 51.5,42.99 51.5,32.5 Z M31,14 L34,14 L34,36 L31,36 Z M32,30.5 L46,30.5 L46,34.5 L32,34.5 Z M35.5,32.5 C35.5,34.16 34.16,35.5 32.5,35.5 C30.84,35.5 29.5,34.16 29.5,32.5 C29.5,30.84 30.84,29.5 32.5,29.5 C34.16,29.5 35.5,30.84 35.5,32.5 Z" fill="#000000" /></svg>
