<svg xmlns="http://www.w3.org/2000/svg" viewBox="0 0 65.0 65.0"><path d="M9.86035 10.95C9.86035 10.6848 9.96578 10.4305 10.1533 10.2429C10.3409 10.0554 10.5951 9.95001 10.8604 9.95001H54.2504C54.5156 9.95001 54.77 10.0554 54.9575 10.2429C55.1451 10.4305 55.2504 10.6848 55.2504 10.95V54.34C55.2504 54.6052 55.1451 54.8596 54.9575 55.0471C54.77 55.2347 54.5156 55.34 54.2504 55.34H10.8804C10.6152 55.34 10.3609 55.2347 10.1733 55.0471C9.9858 54.8596 9.88037 54.6052 9.88037 54.34L9.86035 10.95ZM53.2604 11.95H33.6003V31.62H53.2604V11.95ZM31.5604 11.95H11.9004V31.62H31.5604V11.95ZM53.2604 53.3V33.66H33.6003V53.32L53.2604 53.3ZM11.9004 53.3H31.5604V33.66H11.9004V53.3ZM38.3304 46.95C38.0652 46.95 37.8108 46.8447 37.6233 46.6571C37.4358 46.4696 37.3304 46.2152 37.3304 45.95C37.3304 45.6848 37.4358 45.4305 37.6233 45.2429C37.8108 45.0554 38.0652 44.95 38.3304 44.95H48.5204C48.7856 44.95 49.04 45.0554 49.2275 45.2429C49.4151 45.4305 49.5204 45.6848 49.5204 45.95C49.5204 46.2152 49.4151 46.4696 49.2275 46.6571C49.04 46.8447 48.7856 46.95 48.5204 46.95H38.3304ZM38.3304 42.03C38.0652 42.03 37.8108 41.9247 37.6233 41.7371C37.4358 41.5496 37.3304 41.2952 37.3304 41.03C37.3304 40.7648 37.4358 40.5104 37.6233 40.3229C37.8108 40.1354 38.0652 40.03 38.3304 40.03H48.5204C48.7856 40.03 49.04 40.1354 49.2275 40.3229C49.4151 40.5104 49.5204 40.7648 49.5204 41.03C49.5204 41.2952 49.4151 41.5496 49.2275 41.7371C49.04 41.9247 48.7856 42.03 48.5204 42.03H38.3304ZM38.3304 22.79C38.0652 22.79 37.8108 22.6847 37.6233 22.4971C37.4358 22.3096 37.3304 22.0552 37.3304 21.79C37.3304 21.5248 37.4358 21.2705 37.6233 21.0829C37.8108 20.8954 38.0652 20.79 38.3304 20.79H48.5204C48.7856 20.79 49.04 20.8954 49.2275 21.0829C49.4151 21.2705 49.5204 21.5248 49.5204 21.79C49.5204 22.0552 49.4151 22.3096 49.2275 22.4971C49.04 22.6847 48.7856 22.79 48.5204 22.79H38.3304ZM17.4504 40.63C17.3559 40.5355 17.2808 40.4232 17.2296 40.2997C17.1784 40.1761 17.1522 40.0438 17.1522 39.91C17.1522 39.7763 17.1784 39.6439 17.2296 39.5204C17.2808 39.3968 17.3559 39.2846 17.4504 39.19C17.545 39.0955 17.6572 39.0205 17.7808 38.9693C17.9043 38.9181 18.0367 38.8918 18.1704 38.8918C18.3041 38.8918 18.4365 38.9181 18.5601 38.9693C18.6836 39.0205 18.7958 39.0955 18.8904 39.19L21.7704 42.07L24.6604 39.19C24.755 39.0955 24.8672 39.0205 24.9907 38.9693C25.1143 38.9181 25.2467 38.8918 25.3804 38.8918C25.5141 38.8918 25.6465 38.9181 25.77 38.9693C25.8936 39.0205 26.0058 39.0955 26.1003 39.19C26.1949 39.2846 26.27 39.3968 26.3212 39.5204C26.3723 39.6439 26.3987 39.7763 26.3987 39.91C26.3987 40.0438 26.3723 40.1761 26.3212 40.2997C26.27 40.4232 26.1949 40.5355 26.1003 40.63L23.2104 43.52L26.1003 46.4C26.1949 46.4946 26.27 46.6068 26.3212 46.7303C26.3723 46.8539 26.3987 46.9863 26.3987 47.12C26.3987 47.2537 26.3723 47.3861 26.3212 47.5097C26.27 47.6332 26.1949 47.7455 26.1003 47.84C26.0058 47.9346 25.8936 48.0096 25.77 48.0607C25.6465 48.1119 25.5141 48.1382 25.3804 48.1382C25.2467 48.1382 25.1143 48.1119 24.9907 48.0607C24.8672 48.0096 24.755 47.9346 24.6604 47.84L21.7804 45.02L18.9004 47.9C18.7094 48.091 18.4505 48.1982 18.1804 48.1982C17.9104 48.1982 17.6514 48.091 17.4604 47.9C17.2695 47.7091 17.1621 47.4501 17.1621 47.18C17.1621 46.91 17.2695 46.651 17.4604 46.46L20.3405 43.58L17.4504 40.63ZM20.7504 16.72C20.7504 16.4548 20.8558 16.2004 21.0433 16.0129C21.2309 15.8254 21.4851 15.72 21.7504 15.72C22.0156 15.72 22.27 15.8254 22.4575 16.0129C22.6451 16.2004 22.7504 16.4548 22.7504 16.72V20.8H26.8304C27.0957 20.8 27.3499 20.9054 27.5375 21.0929C27.725 21.2805 27.8304 21.5348 27.8304 21.8C27.8304 22.0652 27.725 22.3196 27.5375 22.5071C27.3499 22.6947 27.0957 22.8 26.8304 22.8H22.7804V26.87C22.7804 27.1352 22.6751 27.3896 22.4875 27.5771C22.3 27.7647 22.0456 27.87 21.7804 27.87C21.5152 27.87 21.2608 27.7647 21.0732 27.5771C20.8857 27.3896 20.7804 27.1352 20.7804 26.87V22.8H16.7104C16.4452 22.8 16.1908 22.6947 16.0033 22.5071C15.8158 22.3196 15.7104 22.0652 15.7104 21.8C15.7104 21.5348 15.8158 21.2805 16.0033 21.0929C16.1908 20.9054 16.4452 20.8 16.7104 20.8H20.7804L20.7504 16.72Z" fill="#ff8b97a5" /></svg>