<svg xmlns="http://www.w3.org/2000/svg" viewBox="0 0 65.0 64.0"><path d="M53.5298 33.74C53.5298 38.3384 52.1662 42.8335 49.6115 46.657C47.0567 50.4804 43.4256 53.4604 39.1772 55.2202C34.9288 56.9799 30.254 57.4403 25.7439 56.5432C21.2339 55.6461 17.0911 53.4318 13.8395 50.1802C10.588 46.9287 8.37364 42.7859 7.47654 38.2758C6.57943 33.7658 7.03986 29.091 8.7996 24.8426C10.5593 20.5942 13.5393 16.9631 17.3628 14.4083C21.1862 11.8536 25.6814 10.49 30.2798 10.49C30.545 10.49 30.7993 10.5953 30.9869 10.7829C31.1744 10.9704 31.2798 11.2248 31.2798 11.49V32.72H52.4898C52.6261 32.7145 52.7622 32.737 52.8895 32.786C53.0168 32.8351 53.1328 32.9097 53.2302 33.0052C53.3277 33.1008 53.4045 33.2153 53.456 33.3416C53.5075 33.468 53.5326 33.6036 53.5298 33.74ZM34.8698 7.01999C37.7768 7.01999 40.6553 7.59273 43.3409 8.70549C46.0265 9.81825 48.4665 11.4492 50.5216 13.5052C52.5767 15.5613 54.2066 18.0021 55.3181 20.6881C56.4297 23.3742 57.0011 26.253 56.9998 29.16C56.9998 29.4252 56.8944 29.6796 56.7069 29.8671C56.5193 30.0546 56.265 30.16 55.9998 30.16H34.8698C34.6046 30.16 34.3502 30.0546 34.1627 29.8671C33.9752 29.6796 33.8698 29.4252 33.8698 29.16V8.01999C33.8698 7.75477 33.9752 7.50042 34.1627 7.31288C34.3502 7.12535 34.6046 7.01999 34.8698 7.01999ZM35.8698 9.09V28.14H54.9198C54.6713 23.1704 52.5874 18.4699 49.0718 14.9487C45.5562 11.4276 40.8589 9.33631 35.8898 9.07999L35.8698 9.09ZM51.4498 34.77H30.2798C30.0146 34.77 29.7602 34.6646 29.5727 34.4771C29.3852 34.2896 29.2798 34.0352 29.2798 33.77V12.55C25.1769 12.7485 21.22 14.134 17.8895 16.5384C14.5591 18.9428 11.9984 22.2625 10.5187 26.0944C9.03888 29.9263 8.70364 34.1054 9.55363 38.1241C10.4036 42.1429 12.4023 45.8284 15.3068 48.7329C18.2114 51.6375 21.8969 53.6362 25.9156 54.4861C29.9344 55.3361 34.1135 55.0009 37.9454 53.5211C41.7772 52.0413 45.097 49.4807 47.5014 46.1503C49.9058 42.8198 51.2913 38.8629 51.4898 34.76L51.4498 34.77Z" fill="#ff8b97a5" /></svg>