<svg xmlns="http://www.w3.org/2000/svg" viewBox="0 0 65.0 65.0"><path d="M55.6701 13.48H52.4201V24.27C52.4201 24.5352 52.3148 24.7896 52.1272 24.9771C51.9397 25.1646 51.6853 25.27 51.4201 25.27H45.9801C45.7149 25.27 45.4606 25.1646 45.273 24.9771C45.0855 24.7896 44.9801 24.5352 44.9801 24.27V13.48H37.9801C36.6972 13.4853 35.4681 13.9966 34.56 14.9028C33.6518 15.8091 33.138 17.0371 33.1301 18.32V48.32L33.2601 48.2C34.5343 46.9915 36.224 46.3185 37.9801 46.32H55.7301L55.6701 13.48ZM50.3801 13.48H47.0001V23.25H50.3801V13.48ZM7.38008 11.48H26.1501C27.9705 11.4795 29.7173 12.1983 31.0101 13.48C31.3925 13.8623 31.7282 14.2886 32.0101 14.75C32.2952 14.2908 32.6306 13.8649 33.0101 13.48C34.3053 12.1959 36.0562 11.4768 37.8801 11.48H56.6501C56.9153 11.48 57.1697 11.5854 57.3572 11.7729C57.5447 11.9605 57.6501 12.2148 57.6501 12.48V47.32C57.6501 47.5852 57.5447 47.8396 57.3572 48.0271C57.1697 48.2147 56.9153 48.32 56.6501 48.32H37.9201C36.6967 48.3286 35.5209 48.7956 34.6248 49.6287C33.7288 50.4617 33.1776 51.6004 33.0801 52.82C33.0801 53.0852 32.9747 53.3396 32.7872 53.5271C32.5997 53.7147 32.3453 53.82 32.0801 53.82C31.8149 53.82 31.5605 53.7147 31.373 53.5271C31.1855 53.3396 31.0801 53.0852 31.0801 52.82C30.9872 51.6004 30.4388 50.4605 29.5439 49.6268C28.649 48.793 27.4732 48.3265 26.2501 48.32H7.42012C7.15491 48.32 6.90057 48.2147 6.71303 48.0271C6.52549 47.8396 6.42012 47.5852 6.42012 47.32V12.46C6.41746 12.327 6.44137 12.1948 6.49043 12.0712C6.5395 11.9476 6.6127 11.8349 6.70583 11.74C6.79895 11.645 6.91008 11.5695 7.03273 11.518C7.15538 11.4665 7.2871 11.44 7.42012 11.44L7.38008 11.48ZM26.1501 13.48H8.44008V46.29H26.1901C27.9436 46.2869 29.6307 46.9603 30.9001 48.17L31.0301 48.29V18.29C31.0275 17.0072 30.5167 15.7776 29.6096 14.8705C28.7025 13.9634 27.4729 13.4527 26.1901 13.45L26.1501 13.48Z" fill="#ff8b97a5" /></svg>