<svg xmlns="http://www.w3.org/2000/svg" viewBox="0 0 65.0 64.0"><path d="M4.64952 18.42L31.6495 6.92C31.7729 6.86774 31.9055 6.84082 32.0395 6.84082C32.1735 6.84082 32.3062 6.86774 32.4296 6.92L59.4296 18.42C59.6734 18.5236 59.8662 18.7197 59.9656 18.9653C60.0649 19.211 60.0628 19.486 59.9595 19.73C59.8582 19.9687 59.6683 20.1587 59.4296 20.26L49.9896 24.26V41.26C49.9911 41.5209 49.8906 41.7721 49.7095 41.96C48.8609 42.9031 47.8887 43.7272 46.8195 44.41V51.23C47.2516 51.3862 47.6442 51.6355 47.9695 51.96C48.396 52.3879 48.6862 52.9325 48.8036 53.5251C48.9211 54.1177 48.8606 54.7318 48.6296 55.29C48.3986 55.8482 48.0075 56.3256 47.5057 56.6619C47.0038 56.9982 46.4137 57.1785 45.8096 57.18C45.2054 57.1785 44.6152 56.9982 44.1134 56.6619C43.6116 56.3256 43.2205 55.8482 42.9895 55.29C42.7585 54.7318 42.698 54.1177 42.8154 53.5251C42.9329 52.9325 43.2231 52.3879 43.6495 51.96L43.7195 51.9C44.0342 51.6058 44.4049 51.3779 44.8096 51.23V45.55C43.933 45.9833 43.0314 46.364 42.1095 46.69C35.2418 48.9568 27.8273 48.9568 20.9595 46.69C18.0554 45.7673 15.431 44.1266 13.3295 41.92C13.1687 41.7377 13.0799 41.5031 13.0795 41.26V23.86L4.6295 20.26C4.38564 20.1564 4.19286 19.9603 4.09349 19.7147C3.99412 19.469 3.99631 19.194 4.09954 18.95C4.20552 18.7075 4.40328 18.5169 4.64952 18.42ZM46.5795 53.36C46.4831 53.2588 46.3666 53.1789 46.2374 53.1255C46.1082 53.0721 45.9693 53.0464 45.8295 53.05C45.57 53.0457 45.319 53.1426 45.1295 53.32C44.9836 53.4668 44.8845 53.6535 44.8443 53.8565C44.8042 54.0596 44.825 54.2699 44.9041 54.4612C44.9832 54.6524 45.117 54.8161 45.2887 54.9315C45.4605 55.0469 45.6626 55.109 45.8696 55.11C46.1506 55.1092 46.42 54.9978 46.6196 54.8C46.7177 54.7039 46.795 54.5886 46.8466 54.4613C46.8982 54.3339 46.9231 54.1973 46.9195 54.06C46.9178 53.7841 46.8104 53.5193 46.6196 53.32L46.5795 53.36ZM44.8295 43.27V26.49L32.4395 31.76C32.3161 31.8123 32.1835 31.8392 32.0495 31.8392C31.9156 31.8392 31.7829 31.8123 31.6595 31.76L15.1095 24.71V40.85C16.9511 42.6499 19.1869 43.9955 21.6395 44.78C28.0795 46.9 35.0295 46.9 41.4695 44.78C42.6313 44.3752 43.7555 43.87 44.8295 43.27ZM46.8295 25.64V41.92C47.2425 41.5893 47.6333 41.2319 47.9995 40.85V25.14L46.8295 25.64ZM43.2795 25.02L31.4595 20.02C31.3337 19.9723 31.2188 19.8997 31.1216 19.8065C31.0245 19.7134 30.9472 19.6016 30.8943 19.4778C30.8414 19.3541 30.8141 19.2209 30.8139 19.0863C30.8137 18.9517 30.8406 18.8185 30.8932 18.6946C30.9457 18.5707 31.0227 18.4587 31.1196 18.3652C31.2164 18.2718 31.3311 18.1988 31.4568 18.1508C31.5825 18.1027 31.7167 18.0806 31.8512 18.0856C31.9857 18.0906 32.1178 18.1227 32.2395 18.18L45.8295 23.97L48.5495 22.81L48.6895 22.75L56.4995 19.42L32.0495 9.01001L7.59953 19.42L32.0495 29.83L43.2795 25.02Z" fill="#ff8b97a5" /></svg>