<svg xmlns="http://www.w3.org/2000/svg" viewBox="0 0 65.0 64.0"><path d="M49.3096 37.42H23.0696C22.571 37.42 22.0928 37.6181 21.7402 37.9707C21.3877 38.3232 21.1896 38.8014 21.1896 39.3C21.1896 39.7986 21.3877 40.2768 21.7402 40.6294C22.0928 40.9819 22.571 41.18 23.0696 41.18H56.7796C57.0448 41.18 57.2992 41.2853 57.4867 41.4729C57.6742 41.6604 57.7796 41.9148 57.7796 42.18C57.7796 42.4452 57.6742 42.6996 57.4867 42.8871C57.2992 43.0746 57.0448 43.18 56.7796 43.18H23.0796C22.0399 43.18 21.0429 42.767 20.3077 42.0319C19.5726 41.2967 19.1596 40.2996 19.1596 39.26C19.1596 38.2203 19.5726 37.2233 20.3077 36.4881C21.0429 35.753 22.0399 35.34 23.0796 35.34H24.3196L17.4396 14.15C17.2999 13.7286 17.0322 13.3613 16.6736 13.0995C16.315 12.8377 15.8835 12.6946 15.4396 12.69H8.34961C8.08439 12.69 7.83005 12.5846 7.64252 12.3971C7.45498 12.2096 7.34961 11.9552 7.34961 11.69C7.34961 11.4248 7.45498 11.1704 7.64252 10.9829C7.83005 10.7954 8.08439 10.69 8.34961 10.69H15.4896C16.3537 10.7022 17.1926 10.9831 17.8897 11.4939C18.5868 12.0046 19.1075 12.7198 19.3796 13.54L26.4796 35.38H49.3396C49.4809 35.3807 49.6192 35.3392 49.7368 35.2608C49.8543 35.1824 49.9458 35.0707 49.9996 34.94L52.2096 28.13H29.7796C29.5144 28.13 29.26 28.0246 29.0725 27.8371C28.885 27.6496 28.7796 27.3952 28.7796 27.13C28.7796 26.8648 28.885 26.6104 29.0725 26.4229C29.26 26.2354 29.5144 26.13 29.7796 26.13H52.8696C53.4396 24.4 54.6496 21.32 54.9596 19.69C54.9754 19.591 54.9697 19.4897 54.9429 19.3931C54.9162 19.2964 54.8689 19.2066 54.8044 19.1298C54.74 19.053 54.6597 18.991 54.5692 18.9479C54.4786 18.9048 54.3799 18.8816 54.2796 18.88H26.7796C26.5144 18.88 26.26 18.7746 26.0725 18.5871C25.885 18.3996 25.7796 18.1452 25.7796 17.88C25.7796 17.6148 25.885 17.3604 26.0725 17.1729C26.26 16.9854 26.5144 16.88 26.7796 16.88C35.8896 16.88 45.2796 16.66 54.3496 16.88C54.7686 16.8926 55.1791 17.0008 55.5499 17.1963C55.9207 17.3919 56.2419 17.6696 56.4889 18.0083C56.7359 18.347 56.9022 18.7376 56.9752 19.1504C57.0481 19.5632 57.0256 19.9872 56.9096 20.39C55.2563 25.4633 53.6096 30.5333 51.9696 35.6C51.7767 36.1464 51.415 36.6173 50.9368 36.9444C50.4586 37.2716 49.8888 37.4382 49.3096 37.42ZM28.7096 45.47C29.4849 45.47 30.2428 45.6999 30.8875 46.1306C31.5321 46.5614 32.0345 47.1736 32.3312 47.8899C32.6279 48.6062 32.7055 49.3944 32.5543 50.1548C32.403 50.9152 32.0297 51.6136 31.4814 52.1618C30.9332 52.7101 30.2348 53.0834 29.4744 53.2347C28.714 53.3859 27.9258 53.3083 27.2095 53.0116C26.4932 52.7149 25.881 52.2125 25.4503 51.5678C25.0195 50.9232 24.7896 50.1653 24.7896 49.39C24.7923 48.3512 25.2061 47.3556 25.9407 46.621C26.6752 45.8865 27.6708 45.4727 28.7096 45.47ZM28.7096 47.47C28.3378 47.47 27.9743 47.5803 27.6651 47.7868C27.3559 47.9934 27.115 48.287 26.9727 48.6306C26.8304 48.9741 26.7932 49.3521 26.8657 49.7168C26.9383 50.0815 27.1173 50.4164 27.3802 50.6794C27.6432 50.9423 27.9781 51.1214 28.3428 51.1939C28.7075 51.2664 29.0856 51.2292 29.4291 51.0869C29.7726 50.9446 30.0662 50.7037 30.2728 50.3945C30.4793 50.0853 30.5896 49.7218 30.5896 49.35C30.5791 48.8583 30.3765 48.3904 30.025 48.0464C29.6736 47.7025 29.2013 47.5099 28.7096 47.51V47.47ZM47.1296 45.47C47.9053 45.468 48.6642 45.6962 49.3102 46.1258C49.9561 46.5553 50.4601 47.1668 50.7584 47.8829C51.0566 48.5991 51.1356 49.3875 50.9855 50.1486C50.8354 50.9097 50.4628 51.6091 49.915 52.1583C49.3672 52.7075 48.6687 53.0819 47.908 53.2339C47.1473 53.386 46.3587 53.309 45.6418 53.0126C44.9249 52.7162 44.3121 52.2137 43.8809 51.5689C43.4497 50.924 43.2196 50.1657 43.2196 49.39C43.2222 48.3529 43.6347 47.3589 44.3671 46.6246C45.0995 45.8903 46.0925 45.4753 47.1296 45.47ZM47.1296 47.47C46.7577 47.47 46.3943 47.5803 46.0851 47.7868C45.776 47.9934 45.535 48.287 45.3927 48.6306C45.2504 48.9741 45.2132 49.3521 45.2857 49.7168C45.3582 50.0815 45.5373 50.4164 45.8002 50.6794C46.0632 50.9423 46.3981 51.1214 46.7628 51.1939C47.1275 51.2664 47.5055 51.2292 47.8491 51.0869C48.1926 50.9446 48.4862 50.7037 48.6927 50.3945C48.8993 50.0853 49.0096 49.7218 49.0096 49.35C48.9991 48.8583 48.7964 48.3904 48.445 48.0464C48.0936 47.7025 47.6213 47.5099 47.1296 47.51V47.47Z" fill="#ff8b97a5" /></svg>