<svg xmlns="http://www.w3.org/2000/svg" viewBox="0 0 65.0 64.0"><path d="M19.2596 42.55C19.2596 42.8152 19.1543 43.0696 18.9668 43.2571C18.7793 43.4446 18.5249 43.55 18.2596 43.55C15.6221 43.5468 13.0867 42.5298 11.1779 40.7096C9.26905 38.8894 8.13284 36.4051 8.00439 33.7706C7.87595 31.1362 8.76511 28.5531 10.4878 26.5558C12.2105 24.5585 14.6349 23.2998 17.2596 23.04C17.5037 19.14 19.2251 15.4797 22.0732 12.8043C24.9213 10.1289 28.6821 8.63953 32.5897 8.63953C36.4973 8.63953 40.258 10.1289 43.1061 12.8043C45.9542 15.4797 47.6756 19.14 47.9197 23.04C50.4686 23.2793 52.8365 24.461 54.5601 26.354C56.2836 28.2469 57.2389 30.7149 57.2389 33.275C57.2389 35.8351 56.2836 38.303 54.5601 40.196C52.8365 42.089 50.4686 43.2707 47.9197 43.51C47.3897 48.58 43.2396 51.85 38.2196 51.85C37.9875 52.8347 37.4298 53.7122 36.6366 54.3402C35.8434 54.9682 34.8613 55.3099 33.8496 55.31H31.3796C30.1862 55.31 29.0415 54.8359 28.1976 53.992C27.3537 53.1481 26.8796 52.0035 26.8796 50.81C26.8796 49.6165 27.3537 48.4719 28.1976 47.628C29.0415 46.7841 30.1862 46.31 31.3796 46.31H33.7797C34.7918 46.3141 35.7732 46.6586 36.5658 47.288C37.3584 47.9174 37.9163 48.7951 38.1497 49.78C42.4097 49.78 45.8696 46.87 45.8696 42.5V24.02C45.8696 20.4873 44.4664 17.0993 41.9684 14.6013C39.4704 12.1033 36.0824 10.7 32.5497 10.7C29.017 10.7 25.629 12.1033 23.131 14.6013C20.633 17.0993 19.2296 20.4873 19.2296 24.02L19.2596 42.55ZM17.2596 41.47V25.11C15.2608 25.3525 13.42 26.3185 12.0847 27.8256C10.7495 29.3327 10.0122 31.2765 10.0122 33.29C10.0122 35.3035 10.7495 37.2473 12.0847 38.7544C13.42 40.2614 15.2608 41.2275 17.2596 41.47ZM47.9796 25.11V41.47C49.9784 41.2275 51.8194 40.2614 53.1547 38.7544C54.4899 37.2473 55.2271 35.3035 55.2271 33.29C55.2271 31.2765 54.4899 29.3327 53.1547 27.8256C51.8194 26.3185 49.9784 25.3525 47.9796 25.11ZM33.7797 48.4H31.3097C30.6883 48.4398 30.1052 48.7146 29.6792 49.1688C29.2532 49.6229 29.0161 50.2223 29.0161 50.845C29.0161 51.4677 29.2532 52.067 29.6792 52.5212C30.1052 52.9753 30.6883 53.2502 31.3097 53.29H33.7797C34.1139 53.3114 34.449 53.264 34.7642 53.1508C35.0794 53.0376 35.368 52.861 35.6123 52.6319C35.8566 52.4027 36.0512 52.1259 36.1843 51.8186C36.3174 51.5113 36.3861 51.1799 36.3861 50.845C36.3861 50.5101 36.3174 50.1787 36.1843 49.8714C36.0512 49.564 35.8566 49.2873 35.6123 49.0581C35.368 48.829 35.0794 48.6524 34.7642 48.5392C34.449 48.426 34.1139 48.3786 33.7797 48.4Z" fill="#ff8b97a5" /></svg>