<svg xmlns="http://www.w3.org/2000/svg" viewBox="0 0 65.0 65.0"><path d="M16.1201 21.4H29.78L24.6901 16.3099C24.5963 16.217 24.522 16.1064 24.4712 15.9846C24.4204 15.8627 24.3943 15.732 24.3943 15.6C24.3943 15.468 24.4204 15.3373 24.4712 15.2154C24.522 15.0935 24.5963 14.9829 24.6901 14.89C24.783 14.7962 24.8936 14.7219 25.0155 14.6711C25.1374 14.6203 25.268 14.5942 25.4 14.5942C25.532 14.5942 25.6627 14.6203 25.7845 14.6711C25.9064 14.7219 26.017 14.7962 26.11 14.89L32.54 21.3199L43.9301 9.91998C44.0233 9.82674 44.1339 9.75273 44.2557 9.70227C44.3776 9.65181 44.5082 9.62585 44.64 9.62585C44.7719 9.62585 44.9025 9.65181 45.0243 9.70227C45.1461 9.75273 45.2567 9.82674 45.35 9.91998C45.4432 10.0132 45.5173 10.1239 45.5677 10.2457C45.6182 10.3675 45.6442 10.4981 45.6442 10.6299C45.6442 10.7618 45.6182 10.8924 45.5677 11.0142C45.5173 11.136 45.4432 11.2467 45.35 11.34L35.35 21.4H49.03C49.831 21.3992 50.6242 21.557 51.3639 21.8642C52.1036 22.1714 52.7753 22.622 53.3401 23.1899V23.2499C54.451 24.3822 55.0754 25.9037 55.0801 27.4899V50.02C55.0774 51.637 54.4338 53.187 53.2904 54.3304C52.147 55.4738 50.597 56.1173 48.98 56.1199H16.1C14.483 56.1173 12.933 55.4738 11.7896 54.3304C10.6462 53.187 10.0026 51.637 10 50.02V27.4899C10.0033 25.876 10.6472 24.3295 11.79 23.1899C12.3572 22.6196 13.032 22.1676 13.7753 21.8604C14.5187 21.5531 15.3157 21.3966 16.1201 21.4ZM47.72 28.61C47.705 28.4493 47.7238 28.2872 47.775 28.1342C47.8263 27.9811 47.9089 27.8404 48.0176 27.7211C48.1263 27.6018 48.2587 27.5065 48.4064 27.4413C48.554 27.3761 48.7136 27.3423 48.875 27.3423C49.0364 27.3423 49.1961 27.3761 49.3438 27.4413C49.4914 27.5065 49.6237 27.6018 49.7324 27.7211C49.8411 27.8404 49.9237 27.9811 49.975 28.1342C50.0262 28.2872 50.045 28.4493 50.03 28.61V28.77C50.045 28.9307 50.0262 29.0927 49.975 29.2458C49.9237 29.3988 49.8411 29.5395 49.7324 29.6588C49.6237 29.7781 49.4914 29.8734 49.3438 29.9387C49.1961 30.0039 49.0364 30.0375 48.875 30.0375C48.7136 30.0375 48.554 30.0039 48.4064 29.9387C48.2587 29.8734 48.1263 29.7781 48.0176 29.6588C47.9089 29.5395 47.8263 29.3988 47.775 29.2458C47.7238 29.0927 47.705 28.9307 47.72 28.77V28.61ZM47.72 33.96C47.705 33.7993 47.7238 33.6372 47.775 33.4841C47.8263 33.3311 47.9089 33.1904 48.0176 33.0711C48.1263 32.9518 48.2587 32.8565 48.4064 32.7913C48.554 32.726 48.7136 32.6924 48.875 32.6924C49.0364 32.6924 49.1961 32.726 49.3438 32.7913C49.4914 32.8565 49.6237 32.9518 49.7324 33.0711C49.8411 33.1904 49.9237 33.3311 49.975 33.4841C50.0262 33.6372 50.045 33.7993 50.03 33.96V34.1199C50.045 34.2806 50.0262 34.4427 49.975 34.5958C49.9237 34.7488 49.8411 34.8895 49.7324 35.0089C49.6237 35.1282 49.4914 35.2234 49.3438 35.2886C49.1961 35.3538 49.0364 35.3876 48.875 35.3876C48.7136 35.3876 48.554 35.3538 48.4064 35.2886C48.2587 35.2234 48.1263 35.1282 48.0176 35.0089C47.9089 34.8895 47.8263 34.7488 47.775 34.5958C47.7238 34.4427 47.705 34.2806 47.72 34.1199V33.96ZM16.1201 25.3099H42.47C42.7578 25.309 43.043 25.3651 43.3091 25.475C43.5751 25.5848 43.8167 25.7462 44.02 25.95L44.0801 26.03C44.4515 26.4255 44.6588 26.9473 44.66 27.4899V50.02C44.6574 50.599 44.4254 51.1535 44.015 51.5621C43.6046 51.9706 43.0491 52.2 42.47 52.2H16.1201C15.5427 52.1973 14.9897 51.9668 14.5814 51.5585C14.1732 51.1503 13.9426 50.5973 13.94 50.02V27.4899C13.9393 27.2036 13.9955 26.9201 14.1054 26.6557C14.2153 26.3913 14.3766 26.1514 14.58 25.95C14.7808 25.7456 15.0206 25.5837 15.2851 25.4738C15.5496 25.3638 15.8336 25.3081 16.1201 25.3099ZM42.47 27.3099H16.1201C16.075 27.31 16.0318 27.3281 16 27.36C15.9808 27.3734 15.9652 27.3913 15.9547 27.4123C15.9442 27.4333 15.9392 27.4566 15.94 27.48V50.02C15.9392 50.0434 15.9442 50.0666 15.9547 50.0876C15.9652 50.1086 15.9808 50.1266 16 50.14C16.0318 50.1719 16.075 50.1898 16.1201 50.1899H42.47C42.4946 50.1894 42.5189 50.1838 42.5413 50.1735C42.5636 50.1631 42.5836 50.1483 42.6 50.1299C42.6146 50.0913 42.6146 50.0486 42.6 50.0099V27.4899C42.61 27.4573 42.61 27.4225 42.6 27.39C42.5665 27.3517 42.5203 27.3268 42.47 27.3199V27.3099ZM49 23.39H16.1201C15.0369 23.3952 13.9997 23.8278 13.2338 24.5937C12.4679 25.3596 12.0353 26.3969 12.03 27.48V50.02C12.0327 51.1039 12.4644 52.1427 13.2309 52.9091C13.9973 53.6756 15.0361 54.1073 16.1201 54.11H49C50.0839 54.1073 51.1227 53.6756 51.8892 52.9091C52.6556 52.1427 53.0874 51.1039 53.0901 50.02V27.4899C53.0892 26.43 52.6769 25.4119 51.9401 24.65H51.89C51.5158 24.2597 51.0674 23.9481 50.5712 23.7334C50.0749 23.5187 49.5407 23.4054 49 23.4V23.39Z" fill="#ff8b97a5" /></svg>