<svg xmlns="http://www.w3.org/2000/svg" viewBox="0 0 65.0 65.0"><path d="M31.5701 26.79C27.7203 26.5999 23.9619 25.5509 20.5701 23.72C18.0894 22.3268 15.8282 20.5745 13.86 18.52C13.6725 19.0226 13.5319 19.5414 13.4401 20.07C13.2612 21.2714 13.3862 22.4985 13.8037 23.6392C14.2212 24.7799 14.9179 25.7979 15.8301 26.6C16.1601 26.92 16.5101 27.25 16.8301 27.6C16.9634 27.75 17.0484 27.9366 17.0742 28.1356C17.1001 28.3346 17.0655 28.5367 16.9749 28.7158C16.8843 28.8948 16.7418 29.0425 16.5662 29.1395C16.3905 29.2366 16.1898 29.2785 15.99 29.26C15.1045 29.2258 14.2301 29.0503 13.4 28.7399C14.02 32.1699 16.4 33.9 19.4 34.89C19.5965 34.958 19.767 35.0855 19.8876 35.2549C20.0082 35.4243 20.073 35.627 20.073 35.835C20.073 36.0429 20.0082 36.2457 19.8876 36.4151C19.767 36.5844 19.5965 36.712 19.4 36.78C18.5962 37.0819 17.7362 37.2048 16.88 37.14C17.5611 38.2836 18.5169 39.2393 19.6607 39.9203C20.8044 40.6013 22.1 40.9862 23.4301 41.04C23.6125 41.0536 23.7876 41.117 23.9365 41.2232C24.0854 41.3295 24.2024 41.4745 24.2746 41.6426C24.3467 41.8107 24.3714 41.9953 24.346 42.1765C24.3205 42.3576 24.2458 42.5284 24.13 42.67C22.4 44.87 17.13 46.43 14.37 46.67C17.3558 47.8028 20.5083 48.4346 23.7001 48.54C32.4801 48.59 40.3301 44.6 44.7001 36.86C47.2901 32.29 47.8501 28.86 48.0401 23.69C48.0483 23.4477 48.1443 23.2168 48.3101 23.04C48.9301 22.37 49.84 21.81 50.5 21.16C49.9398 21.2959 49.3722 21.3994 48.8001 21.47C48.5886 21.4992 48.3734 21.4599 48.1858 21.358C47.9982 21.256 47.8482 21.0967 47.7577 20.9034C47.6672 20.7101 47.6408 20.4929 47.6826 20.2835C47.7244 20.0742 47.8322 19.8837 47.99 19.7399C48.56 19.1399 49.2 18.63 49.77 18.02C48.06 18.77 46.5201 19.1399 45.1701 17.8699C42.9301 15.7599 39.26 15.66 36.6 16.96C33.2 18.63 32.03 21.96 32.6 25.61C32.6273 25.7581 32.6208 25.9104 32.5809 26.0556C32.5411 26.2008 32.4689 26.3352 32.3699 26.4487C32.2709 26.5621 32.1476 26.6517 32.009 26.7108C31.8705 26.7699 31.7205 26.797 31.5701 26.79ZM30.5701 24.71C30.3645 22.7766 30.759 20.8267 31.7001 19.1253C32.6411 17.4239 34.0831 16.0534 35.8301 15.2C39.2501 13.52 43.83 13.75 46.65 16.44C47.57 17.31 50.6501 15.44 51.8301 14.94C52.0022 14.8597 52.1935 14.8301 52.3819 14.8546C52.5702 14.8792 52.7476 14.9568 52.8934 15.0784C53.0393 15.2001 53.1475 15.3609 53.2053 15.5418C53.2632 15.7227 53.2682 15.9163 53.22 16.1C52.9883 17.0379 52.5624 17.9168 51.97 18.6799C52.3 18.5699 52.6601 18.46 53.0701 18.35C53.2522 18.2984 53.4451 18.2995 53.6266 18.3533C53.8081 18.407 53.9706 18.5111 54.0952 18.6536C54.2199 18.796 54.3014 18.9709 54.3306 19.1579C54.3598 19.3449 54.3353 19.5363 54.26 19.71C53.55 21.32 51.47 23.11 50.13 24.2C49.92 29.56 49.2201 33.2 46.5501 37.88C41.8201 46.25 33.3001 50.62 23.8001 50.57C20.3001 50.57 12.5501 49.0199 10.0901 46.4299C9.95338 46.2867 9.86219 46.106 9.82826 45.9109C9.79434 45.7158 9.81909 45.515 9.89943 45.334C9.97976 45.153 10.1121 44.9999 10.2796 44.8941C10.447 44.7884 10.6421 44.7347 10.8401 44.7399C14.7601 44.8599 17.41 44.59 21 42.66C19.4853 42.2436 18.0985 41.4557 16.9652 40.3678C15.8319 39.2799 14.988 37.9264 14.51 36.4299C14.4624 36.2989 14.4427 36.1594 14.4522 36.0203C14.4616 35.8812 14.5001 35.7456 14.5651 35.6223C14.6301 35.4989 14.7201 35.3905 14.8295 35.304C14.9388 35.2175 15.0651 35.1548 15.2001 35.1199C13.997 34.2123 13.0224 33.0364 12.354 31.6857C11.6856 30.3351 11.3418 28.847 11.35 27.34C11.35 26.34 12.25 26.2199 13.03 26.4899C11.7104 24.5105 11.1592 22.1172 11.48 19.76C11.6841 18.5822 12.0581 17.4403 12.5901 16.3699C12.6561 16.2248 12.7559 16.0975 12.8811 15.9987C13.0064 15.9 13.1535 15.8326 13.3101 15.8023C13.4667 15.7719 13.6283 15.7795 13.7814 15.8244C13.9345 15.8692 14.0746 15.9499 14.1901 16.06C16.7901 18.54 18.3101 20.2 21.5401 21.96C24.3341 23.4668 27.4006 24.4017 30.5601 24.71H30.5701Z" fill="#ff8b97a5" /></svg>