<svg xmlns="http://www.w3.org/2000/svg" viewBox="0 0 64.0 65.0"><path d="M46.2802 7.30994C46.4768 7.30241 46.6713 7.35304 46.8393 7.45551C47.0072 7.55798 47.1413 7.70777 47.2245 7.88605C47.3078 8.06433 47.3366 8.26318 47.3074 8.45777C47.2781 8.65235 47.1921 8.83404 47.0602 8.97999L35.9402 24.66H45.5502C45.7561 24.6499 45.96 24.7037 46.1342 24.8141C46.3083 24.9244 46.4441 25.0859 46.5229 25.2764C46.6017 25.4669 46.6197 25.6771 46.5745 25.8782C46.5293 26.0794 46.423 26.2616 46.2702 26.4L19.7802 57.02C19.6343 57.2427 19.4059 57.3984 19.1452 57.4528C18.8846 57.5072 18.613 57.4558 18.3902 57.3099C18.1674 57.1641 18.0117 56.9357 17.9573 56.6751C17.9029 56.4144 17.9543 56.1428 18.1002 55.92L26.5002 36.01H17.6902C17.5166 36.0138 17.3451 35.9724 17.1924 35.8899C17.0397 35.8074 16.9111 35.6865 16.8193 35.5392C16.7275 35.3919 16.6756 35.2232 16.6688 35.0497C16.6619 34.8763 16.7003 34.7041 16.7802 34.55L27.0902 7.93995C27.1617 7.74855 27.2901 7.58368 27.4582 7.46747C27.6262 7.35126 27.8258 7.28932 28.0302 7.28998L46.2802 7.30994ZM44.2802 9.30994H28.7802L19.2102 34.02H28.0602C28.2295 34.0152 28.3972 34.0535 28.5477 34.1314C28.6981 34.2092 28.8264 34.3239 28.9203 34.4648C29.0143 34.6058 29.0709 34.7683 29.0849 34.9371C29.0988 35.1059 29.0697 35.2755 29.0002 35.4299L22.4902 50.86L43.3302 26.72H33.9702C33.7802 26.7272 33.5921 26.6802 33.4279 26.5844C33.2638 26.4885 33.1303 26.3479 33.0432 26.1789C32.9561 26.0099 32.9189 25.8196 32.9361 25.6303C32.9533 25.441 33.0241 25.2605 33.1402 25.11L44.2802 9.30994Z" fill="#ff8b97a5" /></svg>