<svg xmlns="http://www.w3.org/2000/svg" viewBox="0 0 65.0 65.0"><path d="M43.3896 20.25L47.1896 37.35C47.2309 37.491 47.2408 37.6394 47.2183 37.7845C47.1959 37.9297 47.1417 38.0681 47.0596 38.19L32.7796 59.78C32.6911 59.9293 32.5652 60.0529 32.4144 60.1387C32.2636 60.2246 32.0931 60.2697 31.9196 60.2697C31.7461 60.2697 31.5756 60.2246 31.4248 60.1387C31.274 60.0529 31.1482 59.9293 31.0596 59.78L16.7796 38.19C16.6976 38.0681 16.6434 37.9297 16.6209 37.7845C16.5984 37.6394 16.6082 37.491 16.6496 37.35L20.4596 20.25H17.5796C17.3144 20.25 17.06 20.1447 16.8725 19.9572C16.685 19.7696 16.5796 19.5152 16.5796 19.25V6.55005C16.5796 6.28483 16.685 6.03043 16.8725 5.8429C17.06 5.65536 17.3144 5.55005 17.5796 5.55005H46.4896C46.7548 5.55005 47.0092 5.65536 47.1967 5.8429C47.3843 6.03043 47.4896 6.28483 47.4896 6.55005V19.23C47.4896 19.4953 47.3843 19.7496 47.1967 19.9371C47.0092 20.1247 46.7548 20.23 46.4896 20.23L43.3896 20.25ZM45.1296 37.43L41.3096 20.25H22.4896L18.6696 37.43L30.8796 55.86V44.54C29.3905 44.3163 28.0147 43.6143 26.9596 42.54C25.9733 41.5592 25.3015 40.3067 25.0301 38.9424C24.7586 37.5782 24.8998 36.164 25.4355 34.8803C25.9713 33.5966 26.8774 32.5016 28.0381 31.7351C29.1989 30.9686 30.5617 30.5653 31.9527 30.5767C33.3437 30.588 34.6997 31.0136 35.8478 31.799C36.9959 32.5843 37.8839 33.6939 38.3986 34.9862C38.9133 36.2785 39.0314 37.6948 38.7377 39.0544C38.444 40.4141 37.7518 41.6554 36.7496 42.62C35.7049 43.6392 34.364 44.3009 32.9196 44.51V55.83L45.1296 37.43ZM45.4696 7.56H18.5996V18.21H45.4696V7.56ZM35.3996 34.14C34.7133 33.4418 33.8354 32.9628 32.8768 32.7636C31.9183 32.5644 30.9222 32.6539 30.0145 33.0208C29.1068 33.3876 28.3283 34.0154 27.7775 34.8248C27.2266 35.6341 26.9281 36.5886 26.9197 37.5676C26.9113 38.5466 27.1934 39.5061 27.7303 40.3247C28.2673 41.1434 29.0348 41.7844 29.9361 42.1668C30.8374 42.5492 31.8318 42.6558 32.7936 42.473C33.7554 42.2903 34.6414 41.8263 35.3396 41.14C36.2638 40.2132 36.7877 38.9611 36.799 37.6523C36.8102 36.3435 36.3078 35.0825 35.3996 34.14Z" fill="#ff8b97a5" /></svg>